<svg width="21" height="13" viewBox="0 0 21 13" fill="none" xmlns="http://www.w3.org/2000/svg">
<path d="M10.4908 6.5184C10.4908 8.60864 10.4876 10.6989 10.4939 12.7891C10.4939 12.9926 10.4188 13 10.2874 13C8.24794 12.9963 6.21155 12.9963 4.17204 12.9926C3.68719 12.9926 3.20234 13.0148 2.72061 12.9667C1.38492 12.8298 0.183738 11.461 0.0273339 9.88498C-0.0946613 8.67893 0.189994 7.63936 0.915709 6.78107C1.31923 6.30382 1.80409 5.98566 2.36401 5.84508C2.49852 5.81179 2.55795 5.75259 2.58611 5.58241C2.83948 3.87322 3.90303 2.70787 5.36697 2.52659C5.5484 2.50439 5.73296 2.49699 5.91126 2.53769C6.0051 2.55989 6.06453 2.52659 6.12397 2.4341C6.95291 1.08007 8.06964 0.288367 9.46476 0.0478969C9.7588 -0.00389675 10.056 -0.00389675 10.3531 0.00350234C10.472 0.00350234 10.5002 0.062695 10.5002 0.195879C10.497 1.6646 10.497 3.12962 10.4939 4.59834C10.4908 5.23466 10.4908 5.87838 10.4908 6.5184Z" fill="white"/>
<path d="M16.1702 9.28916C17.7061 9.28916 19.242 9.28916 20.7779 9.28916C21.0001 9.28916 21.0001 9.28916 21.0001 9.52834C21.0001 10.6082 21.0001 11.6845 21.0001 12.7643C21.0001 12.9999 21.0001 12.9999 20.7844 12.9999C17.6963 12.9999 14.6114 12.9999 11.5233 12.9999C11.3109 12.9999 11.3109 12.9999 11.3109 12.7608C11.3109 11.6774 11.3142 10.5941 11.3076 9.50724C11.3076 9.33489 11.3599 9.28564 11.5168 9.28564C13.069 9.29268 14.618 9.28916 16.1702 9.28916ZM14.0657 11.688C14.3827 11.7126 14.582 11.3714 14.5787 11.1287C14.5722 10.8192 14.3565 10.5976 14.0559 10.6011C13.7716 10.6046 13.5494 10.8473 13.5526 11.1498C13.5526 11.4558 13.7781 11.6915 14.0657 11.688ZM16.6669 11.1569C16.6669 10.8403 16.461 10.6082 16.1702 10.6011C15.8728 10.5976 15.6441 10.8333 15.6408 11.1428C15.6408 11.4382 15.8695 11.688 16.1506 11.688C16.4479 11.6915 16.6669 11.4629 16.6669 11.1569ZM18.7616 11.1393C18.7583 10.8297 18.5426 10.6011 18.2485 10.6011C17.9642 10.6011 17.7322 10.8438 17.7322 11.1393C17.7322 11.4418 17.974 11.695 18.2583 11.688C18.5524 11.6845 18.7616 11.4523 18.7616 11.1393Z" fill="white"/>
<path d="M16.1522 3.71429C14.6168 3.71429 13.0815 3.71429 11.5461 3.71429C11.3076 3.71429 11.3076 3.71429 11.3076 3.46104C11.3076 2.38826 11.3076 1.31548 11.3076 0.242695C11.3076 0.00703464 11.3076 0.00351732 11.5232 0.00351732C14.6103 0.00351732 17.6974 0.00351732 20.7845 0C20.9478 0 21.0001 0.0457251 21.0001 0.225108C20.9935 1.30492 20.9968 2.38122 20.9968 3.46104C20.9968 3.70725 20.9935 3.71077 20.7583 3.71077C19.223 3.71429 17.6876 3.71429 16.1522 3.71429ZM14.5744 1.85011C14.5744 1.55817 14.3359 1.30141 14.0648 1.29789C13.8001 1.29437 13.5519 1.56169 13.5486 1.84659C13.5486 2.15963 13.7675 2.40233 14.0615 2.40233C14.3522 2.40584 14.5776 2.16315 14.5744 1.85011ZM16.1424 2.40233C16.4364 2.40936 16.6618 2.17722 16.6651 1.86066C16.6684 1.56872 16.4364 1.30844 16.1653 1.29789C15.8974 1.28734 15.6426 1.55465 15.6393 1.85363C15.6361 2.1526 15.8615 2.39881 16.1424 2.40233ZM18.2299 2.40233C18.5239 2.40936 18.7493 2.19129 18.7591 1.8888C18.7689 1.57576 18.5337 1.30141 18.2527 1.29789C17.9849 1.29437 17.7366 1.56521 17.7333 1.86066C17.7301 2.14205 17.962 2.39529 18.2299 2.40233Z" fill="white"/>
<path d="M16.1578 8.35711C14.6215 8.35711 13.082 8.35711 11.5457 8.35711C11.3076 8.35711 11.3076 8.35711 11.3076 8.09037C11.3076 7.03046 11.3076 5.97405 11.3076 4.91414C11.3076 4.66144 11.3076 4.65793 11.5425 4.65793C12.7819 4.66144 14.0214 4.66495 15.2576 4.66495C17.0059 4.66495 18.7574 4.66144 20.5057 4.65793C20.6557 4.65793 20.8514 4.60529 20.946 4.69654C21.0471 4.7913 20.9754 5.00539 20.9754 5.16683C20.9786 6.1741 20.9754 7.17786 20.9819 8.18514C20.9819 8.32552 20.946 8.35711 20.8188 8.35711C19.2662 8.35711 17.7136 8.35711 16.1578 8.35711ZM14.5661 6.52507C14.5693 6.22324 14.3475 5.97405 14.0703 5.96703C13.78 5.96001 13.5452 6.20218 13.5419 6.50752C13.5386 6.81286 13.7735 7.06906 14.054 7.06906C14.3312 7.06906 14.5628 6.82339 14.5661 6.52507ZM18.7444 6.52156C18.7476 6.21622 18.5323 5.97405 18.2486 5.96703C17.9681 5.96001 17.7234 6.21271 17.7202 6.51454C17.7169 6.80935 17.9518 7.06556 18.2225 7.07257C18.5095 7.07959 18.7378 6.83743 18.7444 6.52156ZM16.148 5.96703C15.861 5.96703 15.6327 6.21271 15.6327 6.52156C15.6359 6.81286 15.8773 7.06906 16.1448 7.06906C16.4351 7.06555 16.6601 6.81988 16.6568 6.51103C16.6536 6.2092 16.4285 5.97054 16.148 5.96703Z" fill="white"/>
</svg>
