<svg width="16" height="20" viewBox="0 0 16 20" fill="none" xmlns="http://www.w3.org/2000/svg">
<path d="M15.9965 20C10.6667 20 5.34723 20 0.0104235 20C0.00694897 19.9358 0.00347448 19.8716 0.00347448 19.811C0.00347448 17.4859 0.00347448 15.1643 0 12.8392C0 12.6644 0.0555918 12.6181 0.215418 12.6145C0.458632 12.6074 0.698371 12.5753 0.952009 12.5539C0.952009 10.9955 0.952009 9.45133 0.952009 7.89648C1.64343 7.89648 2.31401 7.89648 3.00543 7.89648C3.00543 9.45133 3.00543 10.9919 3.00543 12.5503C3.3772 12.5503 3.7316 12.5503 4.11032 12.5503C4.11032 11.0026 4.11032 9.4549 4.11032 7.89648C4.80174 7.89648 5.46884 7.89648 6.15679 7.89648C6.15679 9.51195 6.15679 11.1239 6.15679 12.775C6.24017 12.7393 6.29577 12.7179 6.34788 12.6894C7.33811 12.2008 8.24495 11.5732 9.15179 10.9456C9.80499 10.4926 10.4651 10.054 11.1218 9.61181C11.1774 9.57258 11.2365 9.54405 11.3268 9.49056C11.3268 10.5497 11.3268 11.5732 11.3268 12.6395C12.9008 11.5803 14.4365 10.5426 16 9.48699C15.9965 13.0068 15.9965 16.4945 15.9965 20ZM9.81542 15.2713C8.9468 15.2713 8.0886 15.2713 7.22693 15.2713C7.22345 15.3141 7.2165 15.3426 7.2165 15.3712C7.2165 16.1628 7.21998 16.951 7.21303 17.7427C7.21303 17.8675 7.26515 17.8889 7.36938 17.8889C8.14419 17.8853 8.92248 17.8889 9.69729 17.8853C9.73551 17.8853 9.77372 17.8746 9.81889 17.8675C9.81542 16.9973 9.81542 16.1379 9.81542 15.2713ZM4.56547 15.2677C3.71422 15.2677 2.8734 15.2677 2.0291 15.2677C2.0291 16.145 2.0291 17.008 2.0291 17.8782C2.88035 17.8782 3.72117 17.8782 4.56547 17.8782C4.56547 17.0009 4.56547 16.1379 4.56547 15.2677Z" fill="white"/>
<path d="M14.7979 3.64914C14.7631 4.90443 14.2976 5.78884 13.4324 6.43432C12.5568 7.08692 11.5909 7.39718 10.5034 7.12615C10.0517 7.01203 9.65217 6.79093 9.2804 6.51277C9.13447 6.40579 8.98854 6.2988 8.83219 6.20965C8.49516 6.01707 8.15466 6.03491 7.82806 6.24888C7.73078 6.31307 7.64044 6.38796 7.5501 6.46284C6.71275 7.18678 5.7121 7.2581 4.78789 6.65185C4.66628 6.5734 4.55163 6.48068 4.43349 6.39865C4.12774 6.18825 3.81156 6.16685 3.47801 6.3309C3.32166 6.40935 3.16878 6.49494 3.00895 6.55913C2.24109 6.87295 1.52535 6.67681 1.02155 6.02064C0.535122 5.38586 0.507326 4.51929 0.969433 3.86311C1.41417 3.2319 2.03957 3.01793 2.75879 3.16058C3.31123 3.27113 3.69343 3.10352 4.00961 2.63636C4.41612 2.03011 4.95814 1.5986 5.69126 1.48092C6.14641 1.4096 6.57725 1.49875 6.99071 1.69489C7.12274 1.75551 7.25477 1.81614 7.39028 1.86606C7.7412 1.99088 8.0539 1.90886 8.32144 1.6521C8.41873 1.55938 8.50906 1.45596 8.59245 1.35254C9.48192 0.239896 10.625 -0.198742 11.994 0.0829851C13.356 0.368278 14.2107 1.25982 14.6068 2.60783C14.711 2.98227 14.7492 3.38881 14.7979 3.64914Z" fill="white"/>
</svg>
