<svg width="19" height="19" viewBox="0 0 19 19" fill="none" xmlns="http://www.w3.org/2000/svg">
<path d="M3.52034 2.04889C3.90394 2.22918 4.2833 2.40735 4.66478 2.58551C5.09925 2.79125 5.53371 2.99699 5.96817 3.2006C6.0042 3.21757 6.05931 3.22181 6.09322 3.20697C6.54887 3.02244 7.00241 2.83579 7.45383 2.6449C7.4941 2.62793 7.53437 2.57703 7.54708 2.53249C7.8226 1.69257 8.09387 0.852646 8.36515 0.010605C8.36515 0.00848404 8.36939 0.00636303 8.37787 0C9.09208 0 9.81266 0 10.5354 0C10.7113 0.492074 10.8893 0.984148 11.0652 1.47622C11.1945 1.83679 11.3216 2.19524 11.453 2.55369C11.4657 2.58763 11.4997 2.62369 11.5336 2.63641C11.985 2.82731 12.4385 3.01395 12.8942 3.19848C12.9302 3.21333 12.9853 3.21121 13.0192 3.19424C13.7907 2.8061 14.5621 2.41371 15.3314 2.02344C15.3738 2.00223 15.4077 1.9683 15.4607 2.02132C15.9524 2.51764 16.4483 3.01183 16.9464 3.50815C16.7535 3.91962 16.5606 4.3311 16.3678 4.73833C16.177 5.14133 15.9863 5.54432 15.7977 5.94731C15.7807 5.98549 15.7786 6.04488 15.7956 6.08518C15.9778 6.54119 16.1622 6.99721 16.3508 7.4511C16.3635 7.48292 16.4017 7.51474 16.4356 7.52534C17.2579 7.79471 18.0802 8.06196 18.9025 8.33132C18.9491 8.34617 19 8.35253 19 8.43101C18.9958 9.1267 18.9979 9.82239 18.9979 10.5287C18.7118 10.6326 18.4257 10.7344 18.1395 10.8384C17.5864 11.0377 17.0333 11.2371 16.478 11.4344C16.4102 11.4577 16.372 11.4937 16.3423 11.5637C16.1686 11.9964 15.9863 12.427 15.804 12.8554C15.7744 12.9254 15.7744 12.9827 15.8104 13.0527C16.1961 13.8035 16.5755 14.5565 16.9612 15.3052C17.0036 15.3879 16.9972 15.4367 16.9294 15.5025C16.4674 15.9585 16.0075 16.4187 15.5497 16.8811C15.501 16.932 15.4649 16.9426 15.3971 16.9087C14.613 16.5333 13.8267 16.1621 13.0383 15.793C13.0001 15.7761 12.9429 15.7761 12.9048 15.793C12.4534 15.9733 12.0019 16.1578 11.5526 16.3466C11.5145 16.3636 11.4742 16.406 11.4594 16.4442C11.1923 17.2565 10.9274 18.071 10.6646 18.8855C10.6392 18.9682 10.6053 19 10.512 19C9.8614 18.9958 9.21288 18.9958 8.56225 18.9979C8.49019 18.9979 8.45628 18.983 8.42873 18.9046C8.14474 18.0943 7.85227 17.2862 7.56404 16.476C7.53861 16.406 7.49834 16.3657 7.42416 16.336C6.99394 16.1642 6.56795 15.986 6.14196 15.8058C6.07202 15.7761 6.01692 15.7761 5.94486 15.8121C5.18826 16.2003 4.42741 16.5799 3.67081 16.9681C3.59875 17.0041 3.56272 16.9935 3.50974 16.9405C3.04772 16.4739 2.58359 16.0094 2.11521 15.547C2.06435 15.4961 2.05799 15.46 2.08766 15.3943C2.45855 14.6116 2.82731 13.8269 3.19396 13.04C3.21303 12.9997 3.21515 12.936 3.20032 12.8936C3.01805 12.4376 2.83155 11.9837 2.64081 11.5298C2.62386 11.4916 2.56663 11.4598 2.52213 11.445C1.72102 11.1798 0.919906 10.9168 0.118795 10.6602C0.025544 10.6305 -0.00200739 10.5881 0.000111946 10.4905C0.00435063 9.84997 0.00435063 9.21154 0.000111946 8.571C0.000111946 8.47979 0.0319021 8.44374 0.110318 8.41404C0.90507 8.13195 1.69982 7.84349 2.49458 7.56352C2.58783 7.5317 2.63657 7.48292 2.67048 7.39384C2.84003 6.96964 3.01381 6.54968 3.19184 6.12972C3.22151 6.0576 3.21727 6.00246 3.18336 5.93246C2.79976 5.17738 2.41828 4.4223 2.03468 3.66722C1.99865 3.59723 1.99865 3.55481 2.05799 3.49754C2.54968 3.02244 3.03289 2.53673 3.52034 2.04889ZM12.9196 9.5C12.9217 7.64412 11.4763 6.13396 9.64099 6.06609C7.65941 5.99397 6.13772 7.52534 6.07202 9.36213C5.99997 11.3559 7.5492 12.8597 9.35912 12.9318C11.3365 13.0103 12.9217 11.428 12.9196 9.5Z" fill="white"/>
</svg>
