<svg width="17" height="13" viewBox="0 0 17 13" fill="none" xmlns="http://www.w3.org/2000/svg">
<path d="M10.5307 3.59271C10.5212 4.86027 10.135 5.96305 9.48601 6.98027C9.18526 7.45243 8.88767 7.92777 8.73888 8.47599C8.46979 9.4742 8.62808 10.3868 9.31506 11.1886C9.72344 11.6639 9.66962 12.3516 9.19792 12.7445C8.72622 13.1375 8.04874 13.0709 7.64669 12.5797C6.51966 11.1917 6.22208 9.6263 6.67795 7.90559C6.87423 7.16723 7.20981 6.49542 7.62769 5.86164C7.9696 5.34828 8.25135 4.80323 8.34632 4.18846C8.48245 3.30117 8.29251 2.49943 7.67834 1.82129C7.1275 1.21286 7.40292 0.274863 8.1912 0.0530392C8.64391 -0.073717 9.01747 0.0467014 9.31506 0.392112C10.116 1.32694 10.5276 2.40754 10.5307 3.59271Z" fill="white"/>
<path d="M4.05376 3.45327C4.04426 4.86343 3.65487 5.97255 2.99955 6.99294C2.69247 7.47461 2.39172 7.95945 2.24609 8.52035C1.98966 9.51221 2.16695 10.4122 2.84442 11.1981C3.24331 11.6607 3.19266 12.3262 2.73362 12.7318C2.29041 13.1216 1.6066 13.0867 1.21404 12.6272C0.454256 11.7336 0.0300409 10.7037 0.00154878 9.52172C-0.0301091 8.15909 0.425764 6.95491 1.16656 5.83945C1.52746 5.2944 1.81871 4.71132 1.89152 4.05219C1.98017 3.21877 1.78705 2.45506 1.20771 1.82445C0.653701 1.22236 0.925958 0.278025 1.71424 0.0562017C2.16695 -0.0705545 2.54368 0.046695 2.83809 0.395275C3.63904 1.32376 4.05059 2.40753 4.05376 3.45327Z" fill="white"/>
<path d="M12.9621 9.38209C12.9621 8.13988 13.3579 7.02126 14.0259 5.98819C14.3456 5.49385 14.6463 4.98999 14.7761 4.41008C14.9914 3.4404 14.8205 2.55627 14.1398 1.7989C13.6048 1.20315 13.8897 0.268321 14.6622 0.0496668C15.1149 -0.0770895 15.4884 0.0401601 15.786 0.385571C16.4825 1.19681 16.9004 2.13481 16.9827 3.20906C17.0903 4.59071 16.6851 5.83609 15.9506 6.9864C15.6436 7.46807 15.3428 7.95292 15.1972 8.51381C14.9408 9.50568 15.1117 10.4056 15.7924 11.1915C16.1786 11.6384 16.1438 12.307 15.71 12.7063C15.2668 13.1119 14.5862 13.0992 14.1905 12.6524C13.5225 11.8982 13.1204 11.0172 12.9875 10.0127C12.978 9.93031 12.9622 9.84475 12.959 9.76236C12.959 9.6356 12.9621 9.50885 12.9621 9.38209Z" fill="white"/>
</svg>
