<svg width="23" height="20" viewBox="0 0 23 20" fill="none" xmlns="http://www.w3.org/2000/svg">
<path d="M0 11.0199C0.287365 10.5324 0.712666 10.3397 1.2874 10.3737C1.72419 10.3963 2.16099 10.3623 2.59778 10.385C3.24148 10.419 3.6323 10.8045 3.60931 11.3713C3.58632 11.9042 3.1955 12.2556 2.57479 12.2783C2.17248 12.2897 1.77017 12.2556 1.37935 12.2897C0.804623 12.3463 0.344838 12.1649 0 11.7115C0 11.4734 0 11.2466 0 11.0199Z" fill="white"/>
<path d="M22.9893 11.7002C22.6215 12.1763 22.1387 12.335 21.5525 12.2784C21.1387 12.2443 20.7134 12.2897 20.2996 12.267C19.7708 12.2443 19.403 11.8589 19.38 11.3714C19.357 10.8725 19.6904 10.4417 20.2306 10.4077C20.8743 10.3624 21.5295 10.3397 22.1617 10.4304C22.4606 10.4757 22.725 10.8159 23.0008 11.0199C22.9893 11.2467 22.9893 11.4734 22.9893 11.7002Z" fill="white"/>
<path d="M3.62127 19.9876C2.98907 19.9876 2.35687 19.999 1.72466 19.9876C1.19591 19.9763 1.04648 19.7722 1.27637 19.3074C2.2879 17.2781 3.29942 15.2487 4.33394 13.2307C4.4259 13.0606 4.70177 12.8792 4.90867 12.8792C6.18457 12.8452 7.47197 12.8566 8.74787 12.8679C9.29961 12.8679 9.44904 13.106 9.20765 13.5935C8.20762 15.6115 7.20759 17.6182 6.17308 19.6135C6.08112 19.7949 5.77077 19.9536 5.55237 19.9763C4.92016 20.0217 4.27647 19.9876 3.62127 19.9876Z" fill="white"/>
<path d="M9.35663 19.9878C8.68995 19.9878 8.01176 19.9991 7.34508 19.9878C6.8623 19.9764 6.71287 19.7497 6.91978 19.3302C7.9313 17.2782 8.96582 15.2375 10.0118 13.2082C10.0923 13.0494 10.3567 12.8907 10.5406 12.8794C11.8395 12.8567 13.1384 12.8567 14.4373 12.868C14.943 12.8794 15.1039 13.1175 14.8855 13.5709C13.874 15.6003 12.8625 17.6297 11.828 19.6477C11.736 19.8177 11.4601 19.9651 11.2532 19.9764C10.621 20.0218 9.98884 19.9878 9.35663 19.9878Z" fill="white"/>
<path d="M14.9434 19.9876C14.2882 19.9876 13.6445 19.999 12.9893 19.9876C12.518 19.9763 12.3571 19.7496 12.5755 19.3187C13.587 17.2667 14.6101 15.226 15.6561 13.1967C15.7365 13.0266 16.0469 12.8792 16.2538 12.8792C17.5182 12.8452 18.7826 12.8566 20.047 12.8679C20.6332 12.8679 20.7712 13.106 20.5068 13.6275C19.5183 15.6228 18.5182 17.6182 17.4952 19.6022C17.3918 19.7949 17.0699 19.965 16.84 19.9763C16.2078 20.0217 15.5756 19.9876 14.9434 19.9876Z" fill="white"/>
<path d="M18.0113 11.7909C17.448 11.7909 16.9193 11.7909 16.3331 11.7909C16.3905 10.1017 15.8618 8.66186 14.5399 7.5735C13.5514 6.76856 12.4134 6.42844 11.126 6.47379C8.48224 6.58716 6.80403 8.49181 6.49368 11.7796C5.95343 11.7796 5.40169 11.7796 4.79247 11.7796C4.67753 9.42145 5.52813 7.50547 7.42474 6.06565C9.53975 4.45578 12.4824 4.29706 14.7698 5.6235C16.9883 6.91594 18.3216 9.43279 18.0113 11.7909Z" fill="white"/>
<path d="M17.6105 6.1677C17.4036 5.99765 17.0243 5.83893 16.9324 5.58951C16.8174 5.30608 16.8404 4.84126 17.0128 4.61451C17.3921 4.10434 17.8864 3.66219 18.3807 3.25405C18.76 2.94795 19.2083 2.97062 19.5876 3.2994C19.9439 3.6055 20.0704 4.05899 19.7715 4.41044C19.2888 4.98864 18.714 5.48747 18.1623 6.00898C18.0703 6.08834 17.8749 6.08834 17.6105 6.1677Z" fill="white"/>
<path d="M4.05736 3.04993C4.08035 3.04993 4.09184 3.04993 4.11483 3.04993C4.63209 3.08394 6.21835 4.56911 6.17237 5.07928C6.14938 5.38538 5.95397 5.80486 5.70109 5.95224C5.44821 6.08829 4.94245 6.07695 4.71255 5.90689C4.1838 5.52143 3.68953 5.04527 3.29872 4.52376C3.1263 4.29701 3.1263 3.82085 3.24124 3.53742C3.34469 3.28801 3.72402 3.14062 3.98839 2.95923C4.01138 2.9819 4.03437 3.01591 4.05736 3.04993Z" fill="white"/>
<path d="M10.552 1.70084C10.552 1.44009 10.5405 1.16799 10.552 0.907239C10.5865 0.340381 10.9658 -0.0110709 11.506 0.00026628C12.0233 0.0116034 12.4026 0.351718 12.4256 0.884565C12.4486 1.46276 12.4486 2.05229 12.4256 2.63049C12.4026 3.18601 12.0118 3.5488 11.4716 3.53746C10.9428 3.52612 10.575 3.16333 10.552 2.59648C10.5405 2.30171 10.552 1.99561 10.552 1.70084Z" fill="white"/>
</svg>
