<svg width="21" height="21" viewBox="0 0 21 21" fill="none" xmlns="http://www.w3.org/2000/svg">
<path d="M16.8145 10.5043C16.7663 13.6137 14.47 16.2687 11.4155 16.7052C8.54073 17.1151 5.78427 15.547 4.69308 12.8786C3.43536 9.79597 4.78949 6.28566 7.8045 4.83787C11.3585 3.13172 15.5787 5.10961 16.5779 8.96739C16.7006 9.47078 16.7356 9.99198 16.8145 10.5043Z" fill="white"/>
<path d="M3.1421 10.5176C3.1421 10.9186 3.1421 11.3195 3.1421 11.7204C3.1421 11.9743 3.07199 12.0233 2.85287 11.9209C1.95012 11.5066 1.04737 11.0923 0.144616 10.6691C0.0788813 10.6379 0 10.5577 0 10.5043C0 10.4464 0.0832636 10.3706 0.144616 10.3394C1.05175 9.91625 1.96327 9.49751 2.87478 9.08322C3.0676 8.99412 3.13772 9.04758 3.1421 9.27032C3.14649 9.6846 3.1421 10.1033 3.1421 10.5176Z" fill="white"/>
<path d="M17.8447 10.5086C17.8447 10.0988 17.8447 9.69339 17.8447 9.28355C17.8447 9.03854 17.9192 8.98954 18.1427 9.092C19.0323 9.50184 19.9263 9.91167 20.8115 10.326C20.886 10.3616 20.9386 10.4462 21 10.5086C20.943 10.5665 20.8904 10.6422 20.8203 10.6779C19.9263 11.0966 19.0279 11.5065 18.1296 11.9207C17.9236 12.0143 17.8447 11.9653 17.8447 11.7336C17.8447 11.3238 17.8447 10.914 17.8447 10.5086Z" fill="white"/>
<path d="M1.69999 15.8098C1.66494 15.8143 1.6255 15.8232 1.59044 15.8143C1.5247 15.8009 1.41953 15.7876 1.40638 15.7519C1.38447 15.6895 1.41076 15.596 1.4502 15.5381C1.68246 15.1951 1.92349 14.861 2.16013 14.5269C2.49319 14.0591 2.82186 13.5869 3.15492 13.1192C3.3083 12.9054 3.38718 12.9009 3.51865 13.1281C3.9262 13.8275 4.33375 14.5313 4.73692 15.2352C4.85524 15.4401 4.8158 15.5247 4.59669 15.547C3.63259 15.6361 2.66848 15.7252 1.69999 15.8098Z" fill="white"/>
<path d="M5.33341 1.3855C5.37285 1.40777 5.42544 1.4345 5.47364 1.46568C6.27999 2.03589 7.09071 2.60609 7.89705 3.18075C8.09425 3.3233 8.08987 3.40794 7.87514 3.53267C7.17397 3.9425 6.46842 4.34788 5.76288 4.75326C5.55691 4.87354 5.47364 4.82899 5.44735 4.58398C5.35532 3.6084 5.26768 2.63727 5.18003 1.66169C5.17127 1.55032 5.14059 1.41668 5.33341 1.3855Z" fill="white"/>
<path d="M19.2692 5.172C19.3743 5.19873 19.4839 5.22545 19.5891 5.25218C19.5496 5.36355 19.5277 5.48828 19.462 5.58183C18.9274 6.3525 18.3839 7.11425 17.8405 7.88046C17.674 8.11211 17.5951 8.10765 17.4505 7.85819C17.0649 7.19444 16.6836 6.52623 16.298 5.86248C16.1095 5.53728 16.1271 5.49274 16.4908 5.4571C17.4155 5.368 18.3357 5.28336 19.2604 5.19873C19.2648 5.18982 19.2648 5.18091 19.2692 5.172Z" fill="white"/>
<path d="M5.17578 19.4269C5.27219 18.3712 5.35984 17.3822 5.45625 16.3977C5.47816 16.1884 5.56581 16.1438 5.74986 16.2507C6.47294 16.665 7.19602 17.0793 7.9191 17.498C8.07686 17.5916 8.08124 17.6941 7.92786 17.801C7.10399 18.389 6.28012 18.9726 5.45187 19.5517C5.39928 19.5873 5.28972 19.6185 5.25904 19.5918C5.20208 19.5472 5.18455 19.4492 5.17578 19.4269Z" fill="white"/>
<path d="M15.82 1.55475C15.7236 2.60606 15.6316 3.59501 15.5352 4.58396C15.5089 4.83342 15.4388 4.86906 15.2284 4.74878C14.5229 4.3434 13.8173 3.93802 13.1162 3.52819C12.9102 3.40791 12.9014 3.30991 13.0986 3.17181C13.905 2.59715 14.7157 2.02695 15.5264 1.4612C15.5834 1.42111 15.6842 1.38547 15.7412 1.40775C15.7894 1.43447 15.8113 1.53693 15.82 1.55475Z" fill="white"/>
<path d="M1.75282 5.19866C2.69939 5.28775 3.64159 5.37685 4.58816 5.46594C4.80728 5.48822 4.85548 5.57286 4.74154 5.77332C4.33399 6.48607 3.92205 7.19437 3.51012 7.90267C3.40056 8.08977 3.30415 8.09868 3.18145 7.92494C2.5986 7.10973 2.02014 6.29006 1.44168 5.46594C1.40662 5.41249 1.37156 5.30557 1.39785 5.26994C1.43729 5.22093 1.52932 5.20311 1.59944 5.18975C1.64764 5.18084 1.70023 5.19866 1.75282 5.19866Z" fill="white"/>
<path d="M15.8245 19.4626C15.8114 19.4849 15.7895 19.5829 15.7544 19.5873C15.6799 19.5962 15.5835 19.5784 15.5221 19.5339C14.8253 19.0483 14.1329 18.5538 13.4362 18.0638C13.3091 17.9747 13.182 17.8901 13.0593 17.7965C12.9234 17.6941 12.9234 17.5872 13.0724 17.5025C13.7999 17.0793 14.5274 16.6561 15.2592 16.2418C15.4389 16.1394 15.5177 16.1839 15.5353 16.3889C15.6054 17.1105 15.6711 17.8322 15.7412 18.5583C15.7675 18.8434 15.7938 19.133 15.8245 19.4626Z" fill="white"/>
<path d="M19.2904 15.8143C18.3263 15.7253 17.3622 15.6362 16.3937 15.5471C16.1789 15.5248 16.1351 15.4446 16.2403 15.2575C16.6566 14.5358 17.0729 13.8142 17.4936 13.0925C17.5988 12.9143 17.6865 12.9099 17.8048 13.0791C18.3876 13.8944 18.9661 14.714 19.5358 15.5337C19.5752 15.5916 19.6015 15.7342 19.584 15.7475C19.4963 15.7965 19.3912 15.8143 19.2948 15.8411C19.2948 15.8322 19.2904 15.8233 19.2904 15.8143Z" fill="white"/>
<path d="M10.5002 3.15839C10.0926 3.15839 9.68505 3.16285 9.27311 3.15839C9.0277 3.15394 8.98388 3.08266 9.08467 2.85992C9.49661 1.96453 9.90416 1.07359 10.3205 0.182643C10.3555 0.111368 10.43 0.062366 10.4914 0C10.5484 0.0579113 10.6316 0.106913 10.6623 0.173734C11.0786 1.06468 11.4906 1.95562 11.8981 2.85102C12.0077 3.09157 11.9682 3.15394 11.7009 3.15839C11.3021 3.16285 10.8989 3.15839 10.5002 3.15839Z" fill="white"/>
<path d="M10.5045 17.8544C10.9077 17.8544 11.3065 17.8544 11.7097 17.8544C11.9638 17.8544 12.0077 17.9212 11.9069 18.1439C11.4949 19.0438 11.083 19.9436 10.6623 20.8435C10.6316 20.9103 10.5483 21.0083 10.5089 20.9994C10.4432 20.986 10.3599 20.9103 10.3292 20.8435C9.90853 19.9481 9.4966 19.0482 9.08028 18.1484C8.97949 17.9346 9.02769 17.8588 9.25557 17.8588C9.67627 17.8499 10.0926 17.8544 10.5045 17.8544Z" fill="white"/>
</svg>
