<svg width="21" height="16" viewBox="0 0 21 16" fill="none" xmlns="http://www.w3.org/2000/svg">
<path d="M18.0707 10.692C17.2583 10.692 16.4459 10.6943 15.6335 10.6897C15.516 10.6897 15.3911 10.6711 15.2836 10.627C15.0836 10.5434 14.9986 10.3808 14.9761 10.1811C14.8761 9.26842 14.7736 8.35807 14.6736 7.44539C14.6436 7.16671 14.7961 7.01111 15.0986 7.01111C16.6284 7.01111 18.1557 7.01111 19.6855 7.01111C19.968 7.01111 20.1855 7.17135 20.253 7.42913C20.498 8.36503 20.7429 9.29861 20.9829 10.2345C21.0479 10.4853 20.8979 10.6781 20.6179 10.6851C20.1855 10.6967 19.7505 10.6897 19.3181 10.6897C18.9031 10.692 18.4857 10.692 18.0707 10.692Z" fill="white"/>
<path d="M2.9299 10.692C2.125 10.692 1.32259 10.692 0.517689 10.692C0.467695 10.692 0.417701 10.692 0.367707 10.6874C0.0977389 10.6688 -0.0497436 10.4853 0.0152487 10.2368C0.160232 9.66787 0.310214 9.10122 0.457696 8.53456C0.552685 8.16531 0.650174 7.79838 0.745162 7.43145C0.815154 7.16903 1.03263 7.01111 1.32509 7.01111C2.84241 7.01111 4.35723 7.01111 5.87456 7.01111C6.20452 7.01111 6.3545 7.15742 6.322 7.457C6.22201 8.38129 6.11953 9.30326 6.01454 10.2276C5.98454 10.4853 5.78207 10.6688 5.5046 10.6851C5.28463 10.6967 5.06215 10.692 4.84218 10.692C4.20475 10.692 3.56733 10.692 2.9299 10.692Z" fill="white"/>
<path d="M10.5511 10.692C9.76365 10.692 8.97624 10.692 8.19133 10.692C8.11634 10.692 8.04135 10.692 7.96636 10.6851C7.71639 10.6618 7.53641 10.476 7.55391 10.2438C7.6114 9.41474 7.67389 8.58566 7.73639 7.75426C7.74389 7.64511 7.74889 7.53828 7.76138 7.42913C7.78638 7.16671 7.97136 7.00879 8.25632 7.00879C9.26371 7.00879 10.2711 7.00879 11.2785 7.00879C11.8034 7.00879 12.3283 7.00879 12.8533 7.00879C13.0758 7.00879 13.2932 7.14581 13.3207 7.30837C13.3432 7.43842 13.3532 7.56847 13.3632 7.69852C13.3957 8.10726 13.4232 8.51599 13.4532 8.92472C13.4857 9.34506 13.5182 9.76541 13.5482 10.1858C13.5707 10.5086 13.3982 10.6804 13.0508 10.6851C12.7058 10.6897 12.3583 10.6851 12.0134 10.6851C11.5259 10.692 11.0385 10.692 10.5511 10.692Z" fill="white"/>
<path d="M8.58395 13.1653C8.58395 13.0121 8.58395 12.8704 8.58395 12.7287C8.58395 12.5383 8.57895 12.3502 8.58645 12.1598C8.59395 11.9624 8.73393 11.8323 8.94391 11.83C10.0138 11.8277 11.0837 11.8277 12.1535 11.83C12.386 11.83 12.521 11.9647 12.521 12.1853C12.5235 12.5058 12.521 12.8263 12.521 13.1677C12.5735 13.1677 12.621 13.1677 12.6685 13.1677C13.2809 13.1677 13.8933 13.1677 14.5057 13.1677C14.7807 13.1677 14.9232 13.2977 14.9232 13.5508C14.9257 13.9038 14.9257 14.2545 14.9232 14.6075C14.9232 14.8839 14.7932 15.0023 14.4982 15.0023C11.8711 15.0023 9.24387 15.0023 6.61418 15.0023C6.30172 15.0023 6.17674 14.8839 6.17924 14.5936C6.18174 14.2499 6.17924 13.9038 6.17924 13.5601C6.17924 13.2931 6.31422 13.1677 6.59919 13.1677C7.21161 13.1677 7.82404 13.1677 8.43647 13.1677C8.48146 13.1653 8.52646 13.1653 8.58395 13.1653Z" fill="white"/>
<path d="M3.94006 6.0056C3.21515 6.0056 2.49023 6.0056 1.76532 6.0056C1.44286 6.0056 1.32037 5.86162 1.39536 5.569C1.57034 4.88856 1.74782 4.20811 1.9228 3.52767C1.99029 3.26524 2.16277 3.13519 2.45524 3.13287C2.85519 3.13055 3.25514 3.13287 3.6551 3.13287C4.59249 3.13287 5.52987 3.13287 6.46726 3.13519C6.54475 3.13519 6.62724 3.14448 6.69973 3.1677C6.84222 3.21415 6.90471 3.31633 6.88971 3.458C6.83972 3.93872 6.78472 4.41944 6.73223 4.90017C6.70723 5.12776 6.68724 5.35535 6.65724 5.58061C6.61974 5.86162 6.44726 6.00096 6.1373 6.00096C5.40739 6.00792 4.67248 6.0056 3.94006 6.0056Z" fill="white"/>
<path d="M17.1381 6.00564C16.4132 6.00564 15.6883 6.001 14.9634 6.00796C14.7184 6.01029 14.4559 5.87327 14.4284 5.58297C14.3634 4.87698 14.2735 4.17564 14.196 3.46964C14.176 3.27689 14.2985 3.15613 14.5184 3.13523C14.5609 3.13058 14.6009 3.1329 14.6434 3.1329C15.9558 3.1329 17.2681 3.1329 18.5804 3.1329C18.9354 3.1329 19.0879 3.24438 19.1704 3.56254C19.3454 4.23602 19.5203 4.90717 19.6953 5.58065C19.7678 5.85933 19.6478 6.00332 19.3354 6.00564C18.6054 6.00796 17.873 6.00564 17.1381 6.00564Z" fill="white"/>
<path d="M10.5336 6.0056C9.81868 6.0056 9.10126 6.0056 8.38635 6.00328C8.30136 6.00328 8.21137 5.98934 8.13138 5.9638C7.98639 5.91735 7.9039 5.79891 7.9139 5.65725C7.9664 4.91642 8.01889 4.1756 8.07638 3.43477C8.08888 3.25595 8.27386 3.13519 8.51383 3.13287C8.7763 3.13055 9.03877 3.13287 9.30124 3.13287C10.3786 3.13287 11.4585 3.13055 12.5359 3.13519C12.6283 3.13519 12.7283 3.15377 12.8133 3.18628C12.9458 3.23737 13.0133 3.33491 13.0233 3.47657C13.0733 4.19418 13.1308 4.91178 13.1858 5.62938C13.2008 5.81052 13.0983 5.94522 12.9083 5.98702C12.8483 6.00096 12.7858 6.0056 12.7233 6.0056C11.9909 6.00792 11.261 6.0056 10.5336 6.0056Z" fill="white"/>
<path d="M10.5315 2.33163C9.88661 2.33163 9.24169 2.33395 8.59676 2.32931C8.51427 2.32931 8.42928 2.32002 8.35429 2.29215C8.23181 2.24803 8.16431 2.15745 8.17431 2.02973C8.21681 1.44682 8.2593 0.863911 8.3018 0.283326C8.3118 0.143985 8.40429 0.0673479 8.53677 0.0278681C8.59926 0.00928936 8.66675 0.00232234 8.73425 0.00232234C9.9266 0 11.1215 0 12.3163 0C12.3788 0 12.4413 0.00464468 12.5013 0.0162564C12.6738 0.0487692 12.7613 0.137018 12.7763 0.299582C12.8238 0.877845 12.8688 1.45611 12.9112 2.03437C12.9212 2.16907 12.8238 2.28054 12.6663 2.31537C12.6138 2.32699 12.5588 2.32931 12.5063 2.32931C11.8489 2.33163 11.1915 2.33163 10.5315 2.33163Z" fill="white"/>
<path d="M16.4556 2.33172C15.8056 2.33172 15.1557 2.33636 14.5058 2.32707C14.3883 2.32475 14.2633 2.28063 14.1583 2.22721C14.1008 2.19702 14.0533 2.1111 14.0458 2.04607C13.9734 1.46316 13.9084 0.877934 13.8459 0.292704C13.8284 0.13014 13.8984 0.0465361 14.0733 0.018668C14.1633 0.00241164 14.2558 0.00241164 14.3458 0.00241164C15.5032 0.00241164 16.6605 8.92993e-05 17.8204 0.00473398C17.9429 0.00473398 18.0754 0.0465361 18.1829 0.0999499C18.2479 0.132463 18.2978 0.223034 18.3178 0.295027C18.4678 0.850066 18.6103 1.40511 18.7553 1.96247C18.8203 2.21096 18.7228 2.3294 18.4428 2.3294C17.7804 2.33172 17.118 2.33172 16.4556 2.33172Z" fill="white"/>
<path d="M4.62986 2.33172C3.97993 2.33172 3.33001 2.33172 2.68009 2.33172C2.61009 2.33172 2.5376 2.32707 2.47261 2.30617C2.33513 2.26437 2.27763 2.16451 2.31013 2.03446C2.44011 1.53051 2.5726 1.02889 2.70758 0.527261C2.74008 0.406499 2.77758 0.283415 2.83257 0.16962C2.88756 0.0558255 3.01005 0.018668 3.13253 0.0140233C3.32751 0.00473398 3.52249 0.00241164 3.71746 0.00241164C4.75984 0.00241164 5.79972 8.92991e-05 6.84209 0.00473398C6.93458 0.00473398 7.03207 0.0302797 7.11706 0.0604702C7.20955 0.0953053 7.24705 0.174265 7.23705 0.269481C7.17205 0.854711 7.10956 1.43994 7.04457 2.02517C7.02457 2.21328 6.86209 2.3294 6.61712 2.33172C6.20467 2.33404 5.79222 2.33172 5.37977 2.33172C5.1298 2.33172 4.87983 2.33172 4.62986 2.33172Z" fill="white"/>
</svg>
