<svg width="17" height="21" viewBox="0 0 17 21" fill="none" xmlns="http://www.w3.org/2000/svg">
<path d="M6.5544 16.6453C6.15975 16.6801 5.83685 16.7235 5.51395 16.7409C3.30748 16.8539 1.28937 15.6196 0.419335 13.6465C-0.441726 11.6995 0.0515902 9.45697 1.63917 7.97064C1.78268 7.84026 1.88135 7.61426 1.89032 7.42304C1.98898 5.88455 2.64374 4.67636 4.034 3.87669C4.15957 3.79846 4.27617 3.62462 4.30308 3.47685C4.68877 1.40815 6.36604 4.05125e-05 8.48282 4.05125e-05C10.5996 -0.00865152 12.2769 1.38207 12.6895 3.45078C12.7253 3.61593 12.8689 3.81584 13.0213 3.91146C14.304 4.71112 15.0215 5.8324 15.0843 7.31873C15.0933 7.60557 15.165 7.83156 15.3982 8.04017C17.0576 9.56128 17.4791 12.0907 16.4207 14.0377C15.3085 16.0803 13.0572 17.132 10.7521 16.6887C10.6624 16.6714 10.5817 16.6627 10.4292 16.6366C10.4202 16.7931 10.4112 16.9234 10.4112 17.0625C10.4112 18.0795 10.4112 19.0878 10.4023 20.1047C10.4023 20.7392 10.1332 21 9.47842 21C8.78778 21 8.1061 21 7.41546 21C6.84142 20.9913 6.56337 20.7305 6.56337 20.1656C6.54543 19.0008 6.5544 17.8448 6.5544 16.6453ZM9.22728 7.88372C9.73853 7.48388 10.1601 7.15359 10.5906 6.82329C11.0212 6.49299 11.4158 6.49299 11.6939 6.82329C11.9629 7.14489 11.8732 7.53604 11.4517 7.86633C10.788 8.37916 10.1063 8.8833 9.46048 9.41352C9.31697 9.5352 9.18243 9.7612 9.17346 9.94373C9.14655 11.3605 9.15552 12.7773 9.17346 14.2028C9.17346 14.3506 9.27213 14.5418 9.38873 14.6287C11.3082 16.1325 14.304 15.3936 15.2637 13.1946C15.9364 11.6561 15.4879 9.93504 14.1246 8.84853C13.8196 8.60516 13.5954 8.37047 13.6313 7.94456C13.7568 6.45822 13.2366 5.59771 11.8553 4.96319C11.4876 4.79804 11.3171 4.54598 11.2992 4.15483C11.2095 2.57288 10.0435 1.45161 8.50076 1.44292C6.98493 1.44292 5.78303 2.5555 5.68437 4.10268C5.65746 4.57205 5.44219 4.83281 5.01166 5.01535C3.80977 5.52818 3.19088 6.57122 3.32542 7.84895C3.37027 8.27486 3.24469 8.553 2.89489 8.81376C1.23555 10.0654 0.903682 12.3427 2.12352 13.9334C3.3882 15.5936 5.64849 15.9499 7.41546 14.7765C7.86393 14.481 7.90878 13.6292 7.48722 13.2815C6.8773 12.7686 6.25841 12.2732 5.63952 11.7604C5.27178 11.4561 4.90403 11.1693 4.55422 10.8477C4.22236 10.5435 4.20442 10.1263 4.4735 9.83073C4.73361 9.55259 5.12827 9.5439 5.47807 9.81335C5.73818 10.0133 5.98036 10.2219 6.24047 10.4218C6.71585 10.8042 7.19123 11.1867 7.7563 11.6387C7.7563 11.3258 7.7563 11.1258 7.7563 10.9259C7.76527 8.75292 7.78321 6.57991 7.80115 4.4069C7.80115 3.89407 8.08817 3.56378 8.49179 3.55508C8.92232 3.54639 9.20934 3.88538 9.21831 4.42429C9.22728 4.79804 9.21831 5.18049 9.21831 5.55425C9.22728 6.31046 9.22728 7.04059 9.22728 7.88372Z" fill="white"/>
</svg>
