<svg width="18" height="18" viewBox="0 0 18 18" fill="none" xmlns="http://www.w3.org/2000/svg">
<path d="M5.8962 17.9999C1.6317 17.8433 -0.781982 14.1924 0.229286 10.3556C0.544114 9.17122 1.11653 8.1337 1.85113 7.18427C2.72883 6.04887 3.60654 4.91347 4.427 3.72913C4.83723 3.14185 5.08528 2.43712 5.42873 1.8009C5.49551 1.67366 5.61953 1.52684 5.74356 1.50726C5.82942 1.48769 6.02023 1.63451 6.04885 1.74218C6.54494 3.25931 7.52759 4.46322 8.45299 5.70629C8.84414 6.23484 9.283 6.73402 9.68369 7.26257C10.9144 8.86779 11.649 10.6394 11.4486 12.7242C11.2006 15.3866 9.32116 17.442 6.74529 17.9021C6.42092 17.9412 6.08701 17.9804 5.8962 17.9999ZM1.30734 11.9608C1.33596 13.0668 1.66987 14.0652 2.34722 14.9265C3.0055 15.7585 3.86413 16.2381 4.86585 16.4926C5.24746 16.5905 5.57183 16.4926 5.7054 16.0717C5.82942 15.69 5.63861 15.3768 5.2093 15.23C5.12344 15.2006 5.02804 15.1712 4.93264 15.1419C3.72102 14.7601 2.96734 13.9282 2.68113 12.6655C2.59527 12.274 2.59527 11.8629 2.56665 11.4518C2.52849 11.0701 2.32814 10.845 1.95607 10.8352C1.59354 10.8254 1.36458 11.0407 1.31688 11.4127C1.28825 11.6084 1.30734 11.7846 1.30734 11.9608Z" fill="white"/>
<path d="M15.1217 0C15.8563 1.03752 16.6768 2.10441 17.4114 3.23002C18.3654 4.708 18.1269 6.50898 16.9344 7.4682C15.904 8.29039 14.4921 8.32954 13.4236 7.55629C12.3932 6.81241 11.983 5.43231 12.4218 4.11094C12.5173 3.80751 12.6508 3.49429 12.8321 3.23002C13.5953 2.12398 14.3871 1.03752 15.1217 0Z" fill="white"/>
</svg>
