<svg width="13" height="21" viewBox="0 0 13 21" fill="none" xmlns="http://www.w3.org/2000/svg">
<path d="M2.92969 19.7927C2.97963 19.8549 3.01709 19.9063 3.05871 19.9513C3.3126 20.2256 3.62476 20.4077 3.96189 20.547C4.54875 20.7913 5.16266 20.9092 5.79114 20.9649C6.66726 21.042 7.53714 20.997 8.39246 20.7806C8.86277 20.6606 9.31644 20.4956 9.69519 20.1677C9.81173 20.067 9.90954 19.9406 10.0136 19.8249C10.0053 19.8142 9.99487 19.8034 9.98654 19.7949C7.64119 19.7927 5.29585 19.7927 2.92969 19.7927Z" fill="white"/>
<path d="M7.93079 11.8704C7.93911 11.8468 7.94536 11.8254 7.95368 11.8018C7.95368 11.8018 7.95368 11.8018 7.95368 11.7996C8.00571 11.6389 8.04733 11.4761 8.08062 11.3132C8.08062 11.3111 8.08062 11.3089 8.08271 11.3068C8.08687 11.2875 8.08895 11.2682 8.09311 11.2489C8.09311 11.2446 8.09519 11.2382 8.09519 11.2339C8.09727 11.2168 8.10143 11.1996 8.10352 11.1803C8.1056 11.1739 8.1056 11.1653 8.10768 11.1589C8.10976 11.1418 8.11184 11.1268 8.11392 11.1096C8.116 11.101 8.116 11.0946 8.11808 11.086C8.12016 11.071 8.12225 11.0539 8.12433 11.0389C8.12433 11.0303 8.12641 11.0218 8.12641 11.0132C8.12849 10.9982 8.12849 10.9832 8.13057 10.966C8.13057 10.9575 8.13265 10.9468 8.13265 10.9382C8.13473 10.9232 8.13473 10.9082 8.13681 10.8932C8.13681 10.8846 8.13889 10.8739 8.13889 10.8653C8.13889 10.8503 8.14098 10.8353 8.14098 10.8203C8.14098 10.8118 8.14098 10.801 8.14098 10.7925C8.14098 10.7775 8.14098 10.7625 8.14098 10.7475C8.14098 10.7389 8.14098 10.7282 8.14098 10.7196C8.14098 10.7046 8.14098 10.6896 8.14098 10.6746C8.14098 10.666 8.14098 10.6575 8.14098 10.6467C8.14098 10.6167 8.13889 10.5889 8.13681 10.5589C8.13681 10.5482 8.13681 10.5396 8.13473 10.5289C8.13473 10.516 8.13265 10.5032 8.13057 10.4925C8.12849 10.4796 8.12849 10.4667 8.12641 10.456C8.12433 10.4432 8.12433 10.4325 8.12225 10.4196C8.12016 10.4067 8.12016 10.3939 8.11808 10.381C8.116 10.3682 8.11392 10.3575 8.11392 10.3446C8.11184 10.3317 8.10976 10.3189 8.10768 10.306C8.1056 10.2932 8.10352 10.2825 8.10143 10.2696C8.09935 10.2567 8.09727 10.2439 8.09519 10.231C8.09311 10.2203 8.09103 10.2075 8.08895 10.1967C8.08687 10.1839 8.08271 10.171 8.08062 10.156C8.07854 10.1453 8.07438 10.1325 8.0723 10.1217C8.06814 10.1089 8.06606 10.0939 8.06189 10.081C8.05981 10.0703 8.05565 10.0574 8.05357 10.0467C8.04941 10.0339 8.04525 10.0189 8.04108 10.006C8.03692 9.9953 8.03484 9.98459 8.03068 9.97173C8.02652 9.95673 8.02236 9.94387 8.01611 9.92887C8.01195 9.91816 8.00987 9.90744 8.00571 9.89673C8.00154 9.88173 7.9953 9.86673 7.98906 9.85173C7.9849 9.84101 7.98281 9.83244 7.97865 9.82173C7.97241 9.80458 7.96617 9.78958 7.95992 9.77244C7.95576 9.76387 7.95368 9.7553 7.94952 9.74673C7.93911 9.72101 7.92871 9.69744 7.91622 9.67172C7.57909 8.92813 7.00264 8.40098 6.38457 7.88025C5.98292 8.56598 5.57712 9.226 5.20461 9.90744C5.08807 10.1196 5.00691 10.3425 4.95696 10.5717C4.92783 10.7025 4.9091 10.8375 4.90077 10.9725C4.89661 11.041 4.89453 11.1075 4.89453 11.1782C4.89453 11.2811 4.90077 11.3861 4.91326 11.4889C4.91534 11.5168 4.9195 11.5446 4.92367 11.5725C4.92575 11.5811 4.92575 11.5875 4.92783 11.5961C4.92991 11.6153 4.93407 11.6368 4.93615 11.6561C4.93823 11.6646 4.93823 11.6732 4.94031 11.6818C4.94448 11.7032 4.94656 11.7225 4.95072 11.7439C4.9528 11.7503 4.9528 11.7568 4.95488 11.7632C4.95904 11.7889 4.96529 11.8146 4.97153 11.8382C4.97153 11.8404 4.97153 11.8425 4.97361 11.8425C4.99234 11.9282 5.01731 12.0161 5.04437 12.1018V12.1039C5.05269 12.1318 5.0631 12.1596 5.0735 12.1896C5.12761 12.3418 5.1942 12.4939 5.27536 12.6461C5.67076 11.9432 6.04952 11.2703 6.43867 10.5782C6.85905 11.2296 7.26277 11.8511 7.6769 12.4918C7.70603 12.4382 7.7206 12.4147 7.73101 12.3911C7.76847 12.3032 7.80593 12.2175 7.83922 12.1275C7.8642 12.0632 7.88709 12.0011 7.9079 11.9368C7.91414 11.9175 7.92246 11.8961 7.93079 11.8704C7.92871 11.8704 7.93079 11.8704 7.93079 11.8704Z" fill="white"/>
<path d="M12.9917 4.03381C12.9917 3.39094 13.0021 2.74806 12.9875 2.10519C12.9729 1.43446 12.6296 0.939445 12.0115 0.735869C11.5287 0.57515 11.0334 0.448718 10.534 0.348002C9.36856 0.112281 8.18444 0.0287077 6.99824 0.00513565C5.75169 -0.0184364 4.5093 0.0372793 3.27315 0.210855C2.53438 0.313715 1.80393 0.45729 1.09429 0.699439C0.355516 0.95016 0.00589919 1.43232 0.00173708 2.23591C-0.000343976 2.80378 0.0163045 3.37165 0.0183855 3.93952C0.0204666 5.91743 0.0183855 7.89748 0.0183855 9.87539C0.0142234 9.87539 0.0100613 9.87539 0.00589919 9.87539C0.00589919 12.1854 0.00589919 14.4955 0.00589919 16.8077C0.00589919 17.1034 -0.00866819 17.4013 0.00798024 17.697C0.0308718 18.0977 0.18487 18.432 0.544892 18.627C0.680161 18.6999 0.829997 18.7578 0.981913 18.792C1.62704 18.9442 2.28257 19.0471 2.94227 19.0942C3.89331 19.1628 4.84435 19.2335 5.79747 19.2571C7.30624 19.2978 8.815 19.2528 10.3154 19.0685C10.8919 18.9978 11.4683 18.8992 12.0386 18.7856C12.4756 18.6978 12.821 18.462 12.9355 17.9842C12.9813 17.7934 13 17.5899 13 17.3906C12.9979 12.9398 12.9938 8.48678 12.9917 4.03381ZM9.07513 12.8562C8.60689 13.5441 7.97217 14.0155 7.18762 14.2384C6.98367 14.2962 6.78597 14.3284 6.59243 14.3369C6.55498 14.3391 6.5196 14.3412 6.48214 14.3391C5.75793 14.3391 5.11697 14.0069 4.53843 13.4755C3.50207 12.5262 3.34183 11.3626 3.78717 10.0683C3.90996 9.71038 4.06812 9.36323 4.23252 9.02251C4.85267 7.72819 5.48115 6.43816 6.10755 5.14598C6.14293 5.07312 6.18039 5.00455 6.23449 4.89955C7.20218 6.46387 8.26976 7.91891 9.06265 9.55395C9.30197 10.0468 9.46429 10.5611 9.51215 11.1118C9.56418 11.744 9.43099 12.3355 9.07513 12.8562Z" fill="white"/>
</svg>
