<svg width="21" height="13" viewBox="0 0 21 13" fill="none" xmlns="http://www.w3.org/2000/svg">
<path d="M7.3288 8.24889C6.38145 8.31458 5.52621 8.10438 4.7499 7.57887C4.28939 7.26356 3.8815 7.25043 3.42098 7.57887C2.81573 7.99928 2.14469 8.24889 1.40787 8.31458C1.14471 8.34086 0.881561 8.32772 0.631566 8.22262C0.289468 8.05183 0 7.78907 0 7.3818C0 6.98767 0.27631 6.76433 0.631566 6.61982C0.789458 6.55413 0.960507 6.50158 1.13156 6.4753C1.93417 6.33079 2.59205 5.94979 3.15783 5.34546C3.80256 4.63602 4.53938 4.6623 5.17095 5.38487C6.57882 6.97454 8.09194 6.98767 9.53928 5.42429C10.2103 4.70171 10.7893 4.67544 11.4866 5.41115C12.2892 6.25196 13.2103 6.65923 14.3813 6.44903C15.0655 6.33079 15.5655 5.93666 15.9997 5.41115C16.5918 4.72799 17.2365 4.68858 17.8549 5.3586C18.5128 6.0549 19.2233 6.55413 20.2101 6.64609C20.7496 6.69864 20.9864 7.11905 20.9996 7.61828C21.0127 8.14379 20.5654 8.23575 20.1838 8.30144C19.2233 8.47223 18.3549 8.19634 17.5918 7.63142C17.1839 7.32925 16.8549 7.32925 16.4076 7.57887C14.776 8.49851 13.0918 8.65616 11.4077 7.68397C10.8024 7.32925 10.2761 7.2767 9.6577 7.68397C8.96035 8.15693 8.15773 8.34086 7.3288 8.24889Z" fill="white"/>
<path d="M19.8943 3.51934C18.9732 3.53248 18.289 3.30914 17.6838 2.88873C17.2364 2.57343 16.8549 2.52088 16.3549 2.79677C14.6312 3.75582 12.8813 3.79523 11.1708 2.77049C10.7102 2.4946 10.3155 2.4946 9.84184 2.77049C8.11819 3.74268 6.38138 3.72954 4.68405 2.67853C4.27616 2.42891 3.93406 2.40264 3.53934 2.69167C2.97356 3.0858 2.35515 3.34855 1.67095 3.45365C1.43411 3.49307 1.18412 3.51934 0.947282 3.49307C0.473607 3.42738 0.092036 3.17776 0.0262479 2.69167C-0.0395403 2.16616 0.355189 1.91654 0.802548 1.77203C1.09202 1.68006 1.39464 1.61437 1.68411 1.52241C2.19726 1.36476 2.63146 1.08887 2.99987 0.681597C3.8288 -0.238042 4.44721 -0.224904 5.30246 0.707872C5.92087 1.3779 6.63138 1.85085 7.60504 1.73261C8.35503 1.64065 8.96028 1.25966 9.47343 0.72101C10.2366 -0.159216 10.7497 -0.172354 11.5786 0.655322C13.0391 2.11361 14.5917 2.08733 16.0391 0.576495C16.6575 -0.0672521 17.3285 -0.0935275 17.8943 0.576495C18.4732 1.25966 19.1838 1.68006 20.0653 1.81144C20.1969 1.82458 20.3285 1.85085 20.4469 1.9034C20.8548 2.06106 20.9864 2.41577 20.9995 2.79677C21.0127 3.20404 20.71 3.36169 20.3679 3.45365C20.1574 3.51934 19.9337 3.51934 19.8943 3.51934Z" fill="white"/>
<path d="M19.6571 12.9915C18.8676 13.0572 18.1966 12.7288 17.565 12.3084C17.144 12.0325 16.7887 12.0193 16.3414 12.2558C14.5651 13.2411 12.7888 13.2543 11.052 12.177C10.6441 11.9274 10.3152 11.9536 9.90727 12.1901C8.17046 13.228 6.4205 13.228 4.71001 12.1507C4.26265 11.8748 3.90739 11.9142 3.4995 12.177C2.82846 12.6237 2.11795 12.9258 1.30218 12.9521C0.617981 12.9652 0.0785184 12.6499 0.0390455 12.1507C-0.0267426 11.4807 0.473247 11.2968 1.02587 11.1654C1.89427 10.9552 2.65741 10.5873 3.24951 9.86475C3.64424 9.37865 4.24949 9.33924 4.78895 9.69396C5.02579 9.85161 5.21 10.0749 5.40736 10.272C6.53892 11.4544 8.11783 11.4938 9.28886 10.3377C9.43359 10.1932 9.55201 10.0487 9.69675 9.90416C10.2362 9.39179 10.8546 9.39179 11.3809 9.9173C11.7099 10.2326 11.9993 10.6005 12.4204 10.8107C13.6046 11.4281 14.7756 11.2573 15.7361 10.3246C16.8282 9.26041 17.065 9.27355 18.1439 10.2983C18.6308 10.7581 19.1702 11.1128 19.8544 11.2048C20.0255 11.2311 20.1965 11.2573 20.3676 11.3099C20.8544 11.4544 20.9597 11.8617 20.9728 12.2952C20.986 12.7156 20.6307 12.8207 20.3018 12.8996C20.1044 12.9915 19.8676 12.9784 19.6571 12.9915Z" fill="white"/>
</svg>
