<svg width="22" height="28" viewBox="0 0 22 28" fill="none" xmlns="http://www.w3.org/2000/svg">
<path d="M0.00436319 16.9884C0.00436319 17.0651 0.00436319 17.1419 0.00436319 17.2229C7.34346 17.2229 14.6608 17.2229 21.9955 17.2229C21.9955 14.8355 21.9955 12.4738 21.9955 10.1163C21.9955 7.48172 21.9868 4.84714 21.9955 2.20829C21.9999 0.869683 20.8731 1.5231e-05 19.7681 0.00427831C13.9386 0.0170675 8.10913 0.0213306 2.28396 1.52311e-05C1.10066 -0.00424785 -0.00433758 0.886735 1.2803e-05 2.24239C0.00871357 7.15772 0.00436319 12.0731 0.00436319 16.9884ZM7.23905 7.77587C7.91771 6.58647 8.79214 5.54202 9.72312 4.53593C10.1277 4.1011 10.5497 3.68331 10.9412 3.27832C11.1413 3.96041 11.3241 4.62545 11.5329 5.28623C11.5938 5.47807 11.7156 5.65286 11.82 5.83191C12.342 6.71436 13.2165 6.55663 13.7559 6.10048C13.9691 5.91717 14.1301 5.67844 14.3302 5.44823C14.4868 5.93422 14.6695 6.42874 14.8044 6.93604C15.0088 7.70766 15.2263 8.47928 15.3482 9.26368C15.5352 10.4573 15.1524 11.5231 14.3824 12.4439C13.6254 13.352 12.6248 13.8721 11.4372 13.9786C9.12276 14.1875 7.17379 12.6997 6.6909 10.5767C6.46033 9.55784 6.7344 8.6498 7.23905 7.77587Z" fill="#8C8C8C"/>
<path d="M21.9999 19.4014C14.6521 19.4014 7.33478 19.4014 0.00439453 19.4014C0.00439453 19.4824 0.00439453 19.5463 0.00439453 19.6103C0.00439453 20.9617 0.00439453 22.3088 0.00439453 23.6602C0.00439453 24.905 0.974529 25.8471 2.24919 25.8471C3.98064 25.8471 5.71644 25.8471 7.44789 25.8471C7.5262 25.8471 7.60451 25.8471 7.70457 25.8471C7.70457 26.5761 7.70457 27.2838 7.70457 28C8.44848 28 9.1663 28 9.91021 28C9.91021 27.2795 9.91021 26.5719 9.91021 25.8599C10.6411 25.8599 11.3502 25.8599 12.0941 25.8599C12.0941 26.5846 12.0941 27.2881 12.0941 28C12.8424 28 13.5689 28 14.3128 28C14.3128 27.2753 14.3128 26.5719 14.3128 25.8514C14.4129 25.8514 14.4912 25.8514 14.5695 25.8514C16.3227 25.8514 18.0802 25.8514 19.8334 25.8514C19.9074 25.8514 19.9813 25.8557 20.0509 25.8471C21.1951 25.6809 21.9738 24.8283 21.9869 23.69C21.9999 22.6157 21.9956 21.5414 21.9956 20.4671C21.9999 20.109 21.9999 19.7595 21.9999 19.4014ZM8.80956 23.6985C8.20486 23.7028 7.69152 23.1955 7.70022 22.5944C7.70892 22.0232 8.22226 21.5372 8.80956 21.5372C9.40557 21.5372 9.90586 22.0359 9.90586 22.6243C9.90151 23.1998 9.39686 23.6943 8.80956 23.6985ZM13.2034 23.69C12.5944 23.6943 12.1072 23.2211 12.0941 22.6157C12.081 22.053 12.5987 21.5414 13.1817 21.5414C13.7864 21.5414 14.2997 22.0232 14.3041 22.6029C14.3084 23.1955 13.8082 23.6858 13.2034 23.69Z" fill="#8C8C8C"/>
<path d="M12.0378 12.67C12.9645 12.184 13.4343 11.1012 13.0776 10.2017C12.6208 9.05493 11.816 8.13411 11.0024 7.17065C10.1889 8.12132 9.40584 9.05067 8.936 10.1804C8.8577 10.368 8.80549 10.5769 8.80549 10.7772C8.79244 12.3929 10.5848 13.4374 12.0378 12.67Z" fill="#8C8C8C"/>
</svg>
