<svg width="18" height="28" viewBox="0 0 18 28" fill="none" xmlns="http://www.w3.org/2000/svg">
<path d="M9.52065 0C10.1526 0.0773481 10.7846 0.154696 11.4166 0.309392C13.5495 0.928177 15.2874 2.16575 16.5514 3.94475C17.5783 5.49171 18.1313 7.27072 17.9733 9.12707C17.8943 9.8232 17.7363 10.5193 17.5783 11.2155C16.8674 13.4586 15.9194 15.6243 14.8135 17.7127C13.0755 21.1934 11.1006 24.5193 9.04667 27.8453C9.04667 27.9227 8.96767 27.9227 8.96767 28C8.88867 27.9227 8.88867 27.9227 8.88867 27.8453C6.43977 23.8232 4.06985 19.8011 2.09493 15.547C1.30496 13.8453 0.593985 12.221 0.198999 10.3646C-0.274983 8.27624 0.120002 6.26519 1.14696 4.48619C2.25292 2.47514 3.99086 1.16022 6.20277 0.464088C6.83475 0.232044 7.54572 0.154696 8.1777 0.0773481C8.2567 0.0773481 8.33569 0.0773481 8.41469 0C8.80968 0 9.20466 0 9.52065 0ZM2.01593 8.81768C2.01593 12.6077 5.17581 15.6243 8.96767 15.6243C12.8385 15.6243 15.9194 12.6077 15.9984 8.81768C15.9984 5.10497 12.8385 1.9337 8.96767 1.9337C5.09682 2.01105 2.01593 5.10497 2.01593 8.81768Z" fill="#8C8C8C"/>
<path d="M4.62109 6.26525C4.62109 5.33707 5.09508 4.71829 5.80605 4.17685C5.96404 4.02216 6.12204 4.0995 6.28003 4.2542C6.83301 4.87298 7.46499 5.56912 8.01797 6.1879C8.17596 6.41995 8.17596 6.57464 7.93897 6.72934C7.70198 6.88403 7.54398 7.03873 7.30699 7.19343C7.07 7.34812 6.99101 7.58017 7.149 7.88956C7.228 7.96691 7.228 8.1216 7.30699 8.19895C8.01797 9.12713 8.72894 10.0553 9.6769 10.8288C10.0719 11.1382 10.2299 11.1382 10.6249 10.7514C10.7829 10.5967 10.8619 10.442 11.0199 10.3647C11.1778 10.21 11.4148 10.21 11.5728 10.3647C12.1258 11.0608 12.7578 11.6796 13.3108 12.3757C13.4688 12.6078 13.3898 12.7625 13.1528 12.9945C12.0468 13.9227 10.8619 13.6907 9.6769 13.0719C8.49195 12.4531 7.62298 11.5249 6.75401 10.5194C6.04304 9.59122 5.33207 8.66304 5.01608 7.58017C4.77909 7.11608 4.77909 6.72934 4.62109 6.26525Z" fill="#8C8C8C"/>
</svg>
