<svg width="21" height="17" viewBox="0 0 21 17" fill="none" xmlns="http://www.w3.org/2000/svg">
<path d="M8.92472 3.83869C9.69834 4.79837 10.4383 5.72377 11.2232 6.69486C13.1741 5.24393 15.0913 3.81584 17.0646 2.35348C16.5376 1.57661 16.0331 0.834002 15.4501 0C17.3561 0.354165 19.1388 0.685481 21 1.03965C20.7197 2.91329 20.4506 4.74124 20.1479 6.72914C19.5649 5.90656 19.0491 5.17538 18.4997 4.40993C15.921 6.32927 13.3647 8.22577 10.7859 10.1451C10.0011 9.17402 9.26108 8.24862 8.48745 7.28895C6.16658 9.0712 3.87934 10.8192 1.55846 12.6014C1.0315 11.9388 0.526962 11.3104 0 10.6478C2.98238 8.37429 5.91991 6.13505 8.92472 3.83869Z" fill="#8C8C8C"/>
<path d="M18.1739 7.27747C18.1739 10.5221 18.1739 13.7438 18.1739 16.9999C17.6918 16.9999 17.2321 16.9999 16.7275 16.9999C16.7275 13.7667 16.7275 10.5449 16.7275 7.27747C17.1872 7.27747 17.6469 7.27747 18.1739 7.27747Z" fill="#8C8C8C"/>
<path d="M15.8868 17.0001C15.4047 17.0001 14.945 17.0001 14.4404 17.0001C14.4404 14.3267 14.4404 11.6762 14.4404 8.97998C14.9001 8.97998 15.371 8.97998 15.8868 8.97998C15.8868 11.6305 15.8868 14.281 15.8868 17.0001Z" fill="#8C8C8C"/>
<path d="M8.99083 17C8.50872 17 8.06024 17 7.57812 17C7.57812 14.5094 7.57812 12.0417 7.57812 9.53967C8.03782 9.53967 8.48629 9.53967 8.99083 9.53967C8.99083 12.0188 8.99083 14.4751 8.99083 17Z" fill="#8C8C8C"/>
<path d="M13.5777 16.9999C13.0956 16.9999 12.6584 16.9999 12.165 16.9999C12.165 14.8863 12.165 12.807 12.165 10.682C12.6247 10.682 13.0732 10.682 13.5777 10.682C13.5777 12.7727 13.5777 14.852 13.5777 16.9999Z" fill="#8C8C8C"/>
<path d="M6.72756 11.2531C6.72756 13.161 6.72756 15.0346 6.72756 16.9654C6.24544 16.9654 5.77454 16.9654 5.25879 16.9654C5.25879 15.0803 5.25879 13.1952 5.25879 11.2531C5.71848 11.2531 6.20059 11.2531 6.72756 11.2531Z" fill="#8C8C8C"/>
<path d="M9.85547 12.0873C10.3264 12.0873 10.7973 12.0873 11.3018 12.0873C11.3018 13.7096 11.3018 15.3205 11.3018 16.977C10.8421 16.977 10.3712 16.977 9.85547 16.977C9.85547 15.3662 9.85547 13.7439 9.85547 12.0873Z" fill="#8C8C8C"/>
<path d="M4.41708 16.9997C3.93497 16.9997 3.48649 16.9997 2.99316 16.9997C2.99316 15.6516 2.99316 14.3263 2.99316 12.9668C3.45285 12.9668 3.91254 12.9668 4.41708 12.9668C4.41708 14.2921 4.41708 15.6287 4.41708 16.9997Z" fill="#8C8C8C"/>
</svg>
