<svg width="26" height="36" viewBox="0 0 26 36" fill="none" xmlns="http://www.w3.org/2000/svg">
<path d="M0 17.9754C0 12.5413 0 7.10721 0 1.66608C0 0.780316 0.377724 0.217926 1.0982 0.0492091C1.25208 0.0140598 1.41996 0.00702988 1.58084 0.00702988C7.1208 0.00702988 12.6538 0.00702988 18.1937 0C18.5504 0 18.8093 0.126538 19.0401 0.393673C21.2505 2.93849 23.4609 5.47627 25.6782 8.00703C25.9021 8.26011 26 8.5413 26 8.87171C26 17.3919 26 25.9051 26 34.4253C26 35.4376 25.4194 36 24.4052 36C16.8157 36 9.22626 36 1.6368 36C0.552596 36 0 35.4446 0 34.355C0 28.8928 0 23.4306 0 17.9754ZM17.6831 1.44112C12.2411 1.44112 6.841 1.44112 1.42696 1.44112C1.42696 8.95606 1.42696 16.4429 1.42696 23.9508C9.14931 23.9508 16.8577 23.9508 24.573 23.9508C24.573 19.0791 24.573 14.2355 24.573 9.35677C24.4331 9.35677 24.3072 9.35677 24.1813 9.35677C22.3487 9.35677 20.523 9.35677 18.6903 9.35677C17.8929 9.35677 17.6831 9.13884 17.6831 8.33041C17.6831 7.06503 17.6831 5.79965 17.6831 4.53427C17.6831 3.50791 17.6831 2.48858 17.6831 1.44112ZM4.15496 25.645C3.30858 25.7083 2.67205 25.7645 2.02852 25.8137C1.85365 25.8278 1.74872 25.8629 1.74872 26.0738C1.75572 28.5202 1.75572 30.9666 1.74872 33.413C1.74872 33.5817 1.79069 33.6801 1.97955 33.6801C3.02879 33.6801 4.07802 33.7575 5.11326 33.6591C6.37234 33.5395 7.48453 33.0334 8.16303 31.8735C8.72962 30.9033 8.84154 29.8418 8.68066 28.7522C8.44983 27.2478 7.55448 26.3058 6.12752 25.9262C5.42104 25.7294 4.67259 25.7083 4.15496 25.645ZM17.1655 29.4833C17.1235 29.2162 17.0885 28.7944 16.9836 28.3937C16.6269 26.9807 15.7735 26.0246 14.3325 25.7153C12.8776 25.406 11.5486 25.6942 10.5553 26.8682C9.39413 28.2531 9.28222 29.87 9.87678 31.5009C10.8281 34.109 13.71 34.2214 15.2978 33.3005C16.6968 32.4921 17.1235 31.1564 17.1655 29.4833ZM24.2373 25.9473C23.3489 25.6169 22.4746 25.5325 21.5862 25.6591C20.0823 25.8699 18.9002 26.58 18.3266 28.0211C17.732 29.5185 17.788 31.0228 18.7743 32.3585C19.6207 33.5044 20.8727 33.8067 22.2158 33.7926C22.8593 33.7856 23.5168 33.7434 24.1324 33.4411C24.0414 32.9772 23.9575 32.5343 23.8666 32.0562C23.6987 32.0984 23.5588 32.1687 23.4119 32.1758C22.8453 32.2109 22.2577 32.3304 21.7191 32.225C19.9494 31.8594 19.201 29.4622 20.3551 28C20.9217 27.283 21.6981 27.051 22.5585 27.1072C22.9922 27.1353 23.4189 27.2548 23.8805 27.3322C23.9995 26.8963 24.1114 26.4464 24.2373 25.9473Z" fill="#8C8C8C"/>
<path d="M12.4724 21.0123C10.4788 21.0123 8.48529 21.0123 6.49874 21.0123C6.40781 21.0123 6.30988 21.0193 6.21895 21.0123C5.8762 20.9912 5.67334 20.8225 5.65935 20.5553C5.65236 20.2671 5.85521 20.0913 6.21895 20.0703C6.30288 20.0632 6.37983 20.0703 6.46377 20.0703C10.4718 20.0703 14.4799 20.0703 18.488 20.0703C18.6349 20.0703 18.8167 20.0421 18.9287 20.1124C19.0756 20.2038 19.2574 20.3796 19.2644 20.5272C19.2714 20.6748 19.0965 20.8576 18.9566 20.9631C18.8657 21.0334 18.6908 21.0123 18.5509 21.0123C16.5224 21.0123 14.4939 21.0123 12.4724 21.0123Z" fill="#8C8C8C"/>
<path d="M12.4794 13.4974C10.4858 13.4974 8.49927 13.4974 6.50573 13.4974C6.41479 13.4974 6.31686 13.4974 6.22593 13.4974C5.86919 13.4833 5.65235 13.2935 5.65934 13.0123C5.66634 12.7311 5.8552 12.5765 6.21893 12.5554C6.28888 12.5483 6.35883 12.5554 6.42878 12.5554C10.4578 12.5554 14.4869 12.5554 18.5159 12.5554C19.0685 12.5554 19.3064 12.703 19.2924 13.0404C19.2854 13.3568 19.0476 13.4974 18.5229 13.4974C16.5084 13.4974 14.4939 13.4974 12.4794 13.4974Z" fill="#8C8C8C"/>
<path d="M12.4727 16.2601C14.4663 16.2601 16.4598 16.2601 18.4464 16.2601C18.5373 16.2601 18.6352 16.2531 18.7262 16.2601C19.0829 16.2812 19.2997 16.471 19.2927 16.7522C19.2857 17.0193 19.0829 17.188 18.7331 17.2091C18.6492 17.2161 18.5723 17.2091 18.4883 17.2091C14.4803 17.2091 10.4722 17.2091 6.46411 17.2091C6.31722 17.2091 6.13535 17.2372 6.02344 17.1669C5.87654 17.0755 5.68069 16.8928 5.68768 16.7592C5.69468 16.5975 5.87654 16.4218 6.02344 16.3093C6.11437 16.239 6.28924 16.2671 6.42914 16.2671C8.44367 16.2601 10.4582 16.2601 12.4727 16.2601Z" fill="#8C8C8C"/>
<path d="M9.12108 9.85593C9.30295 9.01938 9.47082 8.24609 9.64569 7.47983C9.7716 6.88932 9.80658 6.87526 10.4431 7.0018C10.2193 7.85945 9.98844 8.71709 9.76461 9.57474C9.72264 9.74346 9.67367 9.91217 9.6317 10.0809C9.45683 10.7347 9.45683 10.7347 8.72937 10.6644C8.53351 9.75752 8.33765 8.8366 8.1348 7.85945C7.91096 8.81551 7.68713 9.73643 7.47029 10.6714C7.21847 10.6714 6.98764 10.6714 6.72183 10.6714C6.42805 9.45523 6.12727 8.23203 5.8125 6.94556C5.98737 6.94556 6.12727 6.95259 6.27416 6.94556C6.47002 6.9315 6.56095 6.99477 6.59593 7.20567C6.74282 8.00004 6.9107 8.78739 7.07158 9.58177C7.08557 9.63801 7.09956 9.68722 7.1835 9.75049C7.22547 9.54662 7.27443 9.34275 7.3164 9.13889C7.4493 8.54838 7.60319 7.95786 7.71511 7.36032C7.77806 7.02992 7.91796 6.89635 8.24672 6.95259C8.32366 6.96665 8.4076 6.95259 8.5405 6.95259C8.71538 7.8946 8.91123 8.84363 9.12108 9.85593Z" fill="#8C8C8C"/>
<path d="M13.772 9.75743C13.0026 9.75743 12.2331 9.75743 11.4707 9.75743C11.3448 9.75743 11.1839 9.77852 11.1 9.70822C10.9671 9.60981 10.7852 9.44109 10.7922 9.30752C10.7992 9.15286 10.9531 8.97009 11.093 8.86464C11.1839 8.79434 11.3588 8.8084 11.4987 8.8084C13.0236 8.8084 14.5484 8.8084 16.0733 8.8084C16.1922 8.8084 16.3042 8.8084 16.4161 8.83652C16.6469 8.88573 16.7868 9.03335 16.7868 9.2794C16.7868 9.53951 16.6469 9.70822 16.3951 9.73634C16.1433 9.76446 15.8845 9.75743 15.6327 9.76446C15.0031 9.75743 14.3876 9.75743 13.772 9.75743Z" fill="#8C8C8C"/>
<path d="M3.56738 32.3163C3.56738 30.594 3.56738 28.8857 3.56738 27.1775C4.31584 26.8471 5.66585 27.1423 6.22544 27.7539C6.93892 28.5342 7.05783 30.0527 6.49125 31.1634C6.03658 32.0632 4.95237 32.4991 3.56738 32.3163Z" fill="#8C8C8C"/>
<path d="M15.3326 29.7012C15.2557 30.3409 15.1648 30.9455 14.843 31.5009C14.1715 32.6538 12.5697 32.703 11.9191 31.543C11.2406 30.3339 11.2756 29.0685 11.9401 27.8594C12.2619 27.2759 12.8145 27.0017 13.493 27.058C14.2764 27.1142 14.7451 27.5993 15.0039 28.2812C15.1718 28.7241 15.2277 29.2232 15.3326 29.7012Z" fill="#8C8C8C"/>
</svg>
