<svg width="10" height="12" viewBox="0 0 10 12" fill="none" xmlns="http://www.w3.org/2000/svg">
<path d="M2.35635 3.91534C2.35635 3.24093 2.36491 2.56181 2.35635 1.88741C2.33924 0.788553 3.07928 -0.032051 4.06316 0.000961755C4.69198 0.0198262 5.31652 0.0198262 5.94534 0.000961755C6.91211 -0.0273349 7.64359 0.779121 7.63932 1.85911C7.63504 3.28338 7.64359 4.70293 7.63504 6.12719C7.63504 6.33942 7.69065 6.3913 7.87887 6.38658C8.3708 6.37243 8.86274 6.38187 9.35467 6.38658C9.483 6.38658 9.61134 6.40073 9.73539 6.42431C10.022 6.48562 10.0819 6.62239 9.88511 6.87234C9.59422 7.24491 9.28195 7.59862 8.9654 7.94762C7.97298 9.04647 6.97627 10.1406 5.97529 11.23C5.79562 11.4281 5.60313 11.612 5.40635 11.796C5.12403 12.0601 4.88875 12.0742 4.6107 11.8007C4.21288 11.414 3.83216 11.0037 3.46 10.5934C2.40341 9.43791 1.35537 8.27774 0.307333 7.11758C0.213224 7.01382 0.131947 6.89121 0.0592263 6.76859C-0.0477163 6.57523 -0.0134947 6.49034 0.191835 6.43846C0.315888 6.40545 0.444219 6.3913 0.572551 6.38658C1.09871 6.38187 1.62914 6.37715 2.1553 6.38658C2.31785 6.3913 2.36063 6.32999 2.36063 6.15549C2.35207 5.41035 2.35635 4.6652 2.35635 3.91534Z" fill="#EF4123"/>
</svg>
