<svg width="8" height="28" viewBox="0 0 8 28" fill="none" xmlns="http://www.w3.org/2000/svg">
<path d="M0.134727 7.68127C2.72822 7.68127 5.32172 7.68127 7.96574 7.68127C7.96574 14.4542 7.96574 21.2112 7.96574 28C6.21429 28 4.47968 28 2.62718 28C2.62718 27.6972 2.62718 27.3785 2.62718 27.0757C2.62718 21.6892 2.64402 16.3028 2.61034 10.9004C2.61034 10.4861 2.37456 9.99203 2.07143 9.67331C1.43148 9.03586 0.690476 8.46215 0 7.85657C0.0505227 7.79283 0.0842044 7.74502 0.134727 7.68127Z" fill="#8C8C8C"/>
<path d="M5.22069 5.0996C3.73869 5.08367 2.61035 3.98406 2.61035 2.5498C2.61035 1.0996 3.73869 0 5.22069 0C6.78689 0 8.03312 1.16335 7.99944 2.59761C7.98259 3.98406 6.73637 5.11554 5.22069 5.0996Z" fill="#8C8C8C"/>
</svg>
