<svg width="26" height="26" viewBox="0 0 26 26" fill="none" xmlns="http://www.w3.org/2000/svg">
<path d="M19.2978 0C19.8106 0.0964597 20.3335 0.162458 20.831 0.30461C22.5317 0.791985 23.8619 1.7972 24.8315 3.27455C25.6489 4.51838 25.9992 5.8942 25.9992 7.37663C25.9941 11.1335 25.9941 14.8903 25.9992 18.6421C25.9992 20.6525 25.3392 22.404 23.9279 23.8459C22.8313 24.9628 21.5011 25.6684 19.9426 25.8867C19.4501 25.9578 18.9475 25.9832 18.4551 25.9883C14.7439 25.9984 11.0277 26.0086 7.31649 25.9883C4.47855 25.973 2.32597 24.7089 0.894307 22.2619C0.274934 21.2059 0.00586222 20.0332 0.00586222 18.8147C0.000785388 14.9259 -0.00429144 11.0319 0.00586222 7.1431C0.0160159 4.03608 2.03659 1.29459 5.00654 0.350301C5.48376 0.197996 5.99144 0.142151 6.48897 0.0406146C6.54482 0.030461 6.60066 0.0101537 6.65651 0C10.8703 0 15.084 0 19.2978 0ZM23.6943 12.9916C23.6943 12.1641 23.6943 11.3315 23.6943 10.504C23.6943 9.67643 23.6994 8.84383 23.6994 8.01631C23.6994 7.29032 23.7045 6.56434 23.5116 5.85358C22.9988 3.92946 21.1559 2.42165 19.176 2.33026C18.5515 2.2998 17.9271 2.2998 17.2975 2.2998C13.9722 2.29473 10.6469 2.29473 7.32157 2.2998C6.5702 2.2998 5.83406 2.41149 5.15884 2.74656C3.26519 3.68578 2.31582 5.23929 2.30566 7.34109C2.29043 11.1233 2.30566 14.9056 2.30566 18.6827C2.30566 19.9672 2.6915 21.1094 3.56472 22.069C4.55978 23.1605 5.80867 23.6834 7.28095 23.6834C11.0277 23.6885 14.7744 23.6885 18.521 23.6885C19.1455 23.6885 19.7699 23.6428 20.369 23.4296C22.415 22.7086 23.674 20.9318 23.6893 18.698C23.7045 16.7992 23.6943 14.8954 23.6943 12.9916Z" fill="#8C8C8C"/>
<path d="M19.7038 12.9711C19.7191 16.6569 16.7085 19.6979 13.0024 19.6928C9.32172 19.6877 6.33147 16.7635 6.30101 13.0016C6.27055 9.35132 9.30141 6.31538 12.972 6.30015C16.6476 6.27984 19.6886 9.29548 19.7038 12.9711ZM12.9872 17.3829C15.4291 17.3829 17.3939 15.4181 17.3888 12.9914C17.3837 10.5596 15.4038 8.59488 12.977 8.61011C10.5706 8.62534 8.60589 10.5951 8.61097 12.9914C8.62112 15.4232 10.5757 17.3829 12.9872 17.3829Z" fill="#8C8C8C"/>
<path d="M19.9787 4.35093C20.9027 4.34078 21.6693 5.10738 21.6743 6.04659C21.6743 6.94519 20.9128 7.71179 20.0092 7.71687C19.0699 7.72702 18.2932 6.97057 18.2881 6.05167C18.283 5.11753 19.0344 4.36616 19.9787 4.35093Z" fill="#8C8C8C"/>
</svg>
