<svg width="30" height="30" viewBox="0 0 30 30" fill="none" xmlns="http://www.w3.org/2000/svg">
<circle cx="15" cy="15" r="15" fill="#DADADA"/>
<path d="M19.36 6C19.715 6.06678 20.077 6.11247 20.4215 6.21088C21.5989 6.5483 22.5198 7.24421 23.1911 8.267C23.7569 9.12811 23.9995 10.0806 23.9995 11.1069C23.9959 13.7078 23.9959 16.3087 23.9995 18.9061C23.9995 20.2979 23.5425 21.5105 22.5654 22.5087C21.8063 23.2819 20.8854 23.7705 19.8064 23.9216C19.4655 23.9708 19.1175 23.9884 18.7766 23.9919C16.2073 23.9989 13.6345 24.0059 11.0653 23.9919C9.10053 23.9813 7.61029 23.1062 6.61914 21.4121C6.19034 20.681 6.00406 19.8691 6.00406 19.0256C6.00054 16.3333 5.99703 13.6375 6.00406 10.9452C6.01109 8.79421 7.40995 6.89626 9.46606 6.24252C9.79645 6.13707 10.1479 6.09841 10.4924 6.02812C10.531 6.02109 10.5697 6.00703 10.6083 6C13.5256 6 16.4428 6 19.36 6ZM22.4038 14.9942C22.4038 14.4213 22.4038 13.8449 22.4038 13.272C22.4038 12.6991 22.4073 12.1227 22.4073 11.5498C22.4073 11.0471 22.4108 10.5445 22.2772 10.0525C21.9223 8.7204 20.6464 7.67652 19.2757 7.61326C18.8434 7.59217 18.411 7.59217 17.9752 7.59217C15.6731 7.58866 13.3709 7.58866 11.0688 7.59217C10.5486 7.59217 10.039 7.66949 9.57151 7.90147C8.26051 8.55169 7.60326 9.6272 7.59623 11.0823C7.58569 13.7008 7.59623 16.3192 7.59623 18.9342C7.59623 19.8234 7.86335 20.6142 8.46788 21.2785C9.15677 22.0342 10.0214 22.3962 11.0407 22.3962C13.6345 22.3997 16.2284 22.3997 18.8223 22.3997C19.2546 22.3997 19.6869 22.3681 20.1016 22.2205C21.5181 21.7214 22.3897 20.4912 22.4003 18.9447C22.4108 17.6302 22.4038 16.3122 22.4038 14.9942Z" fill="white"/>
<path d="M19.6416 14.98C19.6521 17.5317 17.5679 19.637 15.0021 19.6335C12.454 19.63 10.3838 17.6055 10.3627 15.0011C10.3416 12.474 12.4399 10.3722 14.9811 10.3616C17.5257 10.3476 19.631 12.4353 19.6416 14.98ZM14.9916 18.0343C16.6822 18.0343 18.0424 16.6741 18.0389 14.9941C18.0354 13.3105 16.6646 11.9503 14.9846 11.9608C13.3186 11.9714 11.9584 13.3351 11.9619 14.9941C11.9689 16.6776 13.3221 18.0343 14.9916 18.0343Z" fill="white"/>
<path d="M19.8313 9.01203C20.471 9.005 21.0017 9.53573 21.0052 10.186C21.0052 10.8081 20.478 11.3388 19.8524 11.3423C19.2022 11.3493 18.6644 10.8256 18.6609 10.1895C18.6574 9.54276 19.1776 9.02258 19.8313 9.01203Z" fill="white"/>
</svg>
