<svg width="26" height="36" viewBox="0 0 26 36" fill="none" xmlns="http://www.w3.org/2000/svg">
<g clip-path="url(#clip0)">
<path d="M25.993 21.6591C25.993 25.8559 25.993 30.0457 25.993 34.2425C25.993 35.4798 25.4824 36 24.2583 36C16.7388 36 9.21926 36 1.69976 36C0.531611 36 0 35.4728 0 34.2847C0 23.4236 0 12.5624 0 1.70826C0 0.54833 0.531612 0.00702988 1.68577 0.00702988C7.16277 0.00702988 12.6398 0.00702988 18.1238 0C18.5365 0 18.8232 0.133568 19.0891 0.442882C21.2715 2.95958 23.4609 5.46924 25.6572 7.97891C25.9161 8.27417 26.007 8.59051 26.007 8.97012C25.993 13.2021 25.993 17.4271 25.993 21.6591ZM1.42696 1.42707C1.42696 8.94903 1.42696 16.4429 1.42696 23.9508C1.49691 23.9578 1.55287 23.9719 1.60882 23.9719C2.92386 23.9719 4.2389 23.9719 5.56094 23.9719C5.60291 23.8383 5.63089 23.7258 5.66586 23.6204C6.05757 22.4112 6.40732 21.181 6.848 19.9859C7.35163 18.6011 7.9322 17.2443 8.92548 16.1195C9.68093 15.2619 10.4713 15.2478 11.2408 16.0844C12.6468 17.6098 13.4931 19.4587 14.1646 21.3849C14.4514 22.2004 14.6683 23.0369 14.9061 23.8453C15.1229 23.1775 15.3258 22.4816 15.5846 21.8067C15.9274 20.8998 16.3261 20.007 17.0535 19.3251C17.837 18.587 18.6624 18.6151 19.3618 19.4306C19.6556 19.775 19.9354 20.1547 20.1243 20.5624C20.6069 21.5958 21.0406 22.6643 21.5023 23.7047C21.5513 23.8102 21.6702 23.9649 21.7541 23.9649C22.6844 23.9859 23.6147 23.9789 24.5591 23.9789C24.5591 19.0931 24.5591 14.2355 24.5591 9.35677C24.4052 9.35677 24.2793 9.35677 24.1533 9.35677C22.3347 9.35677 20.516 9.35677 18.6973 9.35677C17.8859 9.35677 17.6761 9.14587 17.6691 8.34446C17.6691 6.17926 17.6691 4.00703 17.6691 1.84183C17.6691 1.70826 17.6691 1.57469 17.6691 1.4341C12.2341 1.42707 6.85499 1.42707 1.42696 1.42707ZM22.7963 25.8559C21.7471 25.4411 20.6979 25.3849 19.6347 25.4903C18.7533 25.5817 17.9209 25.8559 17.2144 26.4042C15.7665 27.529 15.3818 29.0685 15.6546 30.7979C15.9064 32.4359 16.8717 33.5044 18.4595 33.9473C19.9075 34.348 21.3414 34.1722 22.7684 33.7856C22.9992 33.7223 23.0831 33.6309 23.0761 33.3779C23.0621 32.0773 23.0691 30.7768 23.0691 29.4763C23.0691 29.3849 23.0552 29.2935 23.0552 29.2021C21.9989 29.2021 20.9707 29.2021 19.9284 29.2021C19.9284 29.7012 19.9284 30.1722 19.9284 30.6995C20.3551 30.6995 20.7678 30.6995 21.2155 30.6995C21.2155 31.2267 21.2015 31.7047 21.2225 32.1758C21.2365 32.4288 21.1316 32.5202 20.8937 32.5624C19.0051 32.8858 17.6411 31.768 17.5991 29.8629C17.5712 28.5765 18.1517 27.6274 19.2359 27.2337C19.9075 26.9877 20.6139 27.0018 21.3064 27.1072C21.6702 27.1634 22.0199 27.2689 22.3976 27.3603C22.5305 26.8612 22.6564 26.3761 22.7963 25.8559ZM10.5273 31.1213C11.2758 31.0299 11.9613 30.9947 12.6258 30.8541C13.9128 30.587 14.7592 29.4552 14.7242 28.1195C14.6893 26.7909 13.8359 25.8278 12.5069 25.5888C11.3317 25.3779 10.1636 25.4903 8.98843 25.5888C8.70164 25.6098 8.59672 25.6872 8.59672 26.0035C8.61071 28.5765 8.60371 31.1564 8.60371 33.7294C8.60371 33.8418 8.6177 33.9543 8.6177 34.0598C9.26823 34.0598 9.87678 34.0598 10.5203 34.0598C10.5273 33.0475 10.5273 32.0562 10.5273 31.1213ZM5.09228 25.5466C5.09228 27.2759 5.09228 28.9701 5.09228 30.6643C5.09228 30.9526 5.07129 31.2478 5.02932 31.536C4.91741 32.2882 4.47673 32.6468 3.72828 32.6046C3.4275 32.5905 3.13371 32.5343 2.79096 32.4851C2.72101 32.9842 2.65106 33.4833 2.57412 34.0035C3.39952 34.2425 4.20393 34.2847 5.01533 34.0949C5.87571 33.8981 6.48426 33.3989 6.75706 32.5483C6.87598 32.1828 6.95991 31.7961 6.96691 31.4165C6.99489 29.5185 6.99489 27.6204 6.99489 25.7294C6.99489 25.6731 6.9809 25.6169 6.9739 25.5395C6.35835 25.5466 5.7428 25.5466 5.09228 25.5466Z" fill="#8C8C8C"/>
<path d="M18.1173 14.6642C17.9214 14.6221 17.6066 14.5518 17.2849 14.4955C17.138 14.4674 16.9911 14.4604 16.8442 14.4744C16.0818 14.5518 15.3333 14.5588 14.6058 14.2776C14.3051 14.1581 13.9483 14.0316 13.9623 13.6309C13.9763 13.2583 14.326 13.1458 14.6128 13.0333C14.7737 12.97 14.9416 12.9068 15.1165 12.8857C15.3893 12.8576 15.5711 12.7802 15.697 12.492C15.8509 12.1335 16.4805 12.0351 16.9142 12.2108C17.068 12.2741 17.2639 12.2881 17.4318 12.253C18.1942 12.0843 18.9357 12.0843 19.6422 12.4569C19.852 12.5693 20.0479 12.7381 20.1948 12.9208C20.4606 13.2512 20.4116 13.6801 20.0968 14.0034C19.5932 14.5377 18.9357 14.6432 18.1173 14.6642Z" fill="#8C8C8C"/>
<path d="M5.55391 9.91216C6.51221 9.90513 7.29564 10.6784 7.30263 11.6415C7.30963 12.5976 6.53319 13.3849 5.57489 13.399C4.62359 13.406 3.83317 12.6257 3.82617 11.6696C3.82617 10.6995 4.59561 9.91919 5.55391 9.91216Z" fill="#8C8C8C"/>
<path d="M10.5271 29.5115C10.5271 28.7241 10.5201 27.9438 10.5341 27.1565C10.5341 27.0862 10.674 26.9596 10.751 26.9596C11.1637 26.9596 11.5904 26.9385 11.9961 27.0299C12.5067 27.1424 12.7795 27.5572 12.8075 28.0844C12.8424 28.689 12.5766 29.16 12.059 29.3849C11.5764 29.6099 11.0727 29.6239 10.5271 29.5115Z" fill="#8C8C8C"/>
</g>
<defs>
<clipPath id="clip0">
<rect width="26" height="36" fill="white"/>
</clipPath>
</defs>
</svg>
