<svg width="33" height="33" viewBox="0 0 33 33" fill="none" xmlns="http://www.w3.org/2000/svg">
<path d="M2.64117 24.3536C2.73229 23.2157 2.82991 22.1287 2.9015 21.0417C2.90801 20.9018 2.82991 20.7111 2.72578 20.6094C1.97731 19.8911 1.20931 19.1855 0.454338 18.4735C-0.0793523 17.9713 -0.137928 17.5264 0.252577 16.9161C0.812301 16.0452 1.37203 15.1743 1.94477 14.3162C2.06192 14.1382 2.07493 13.9856 2.00334 13.7885C1.67141 12.8477 1.3525 11.9069 1.02708 10.9598C0.760234 10.1715 0.903419 9.7901 1.63236 9.37691C2.53052 8.86836 3.4417 8.36617 4.33336 7.84492C4.45051 7.77499 4.56115 7.62243 4.58718 7.48893C4.77593 6.45913 4.94515 5.42297 5.10786 4.38681C5.2185 3.71298 5.59599 3.38878 6.32493 3.36336C7.3793 3.32522 8.42715 3.28072 9.48152 3.24893C9.68979 3.24258 9.81345 3.17265 9.93711 3.01373C10.5619 2.18735 11.1932 1.36732 11.8245 0.547286C12.2736 -0.0311842 12.7097 -0.13925 13.3801 0.172234C14.3238 0.604498 15.261 1.03676 16.1982 1.48174C16.4195 1.5898 16.5887 1.57709 16.8035 1.47538C17.7147 1.03676 18.6389 0.617211 19.5566 0.191305C20.292 -0.145607 20.702 -0.0502546 21.1902 0.579071C21.8085 1.38003 22.4333 2.18735 23.0451 2.99466C23.1687 3.15994 23.2989 3.24258 23.5202 3.24893C24.542 3.27436 25.5573 3.32522 26.5791 3.357C27.4252 3.38879 27.7572 3.66849 27.8938 4.49487C28.0565 5.48654 28.2193 6.4782 28.4015 7.46986C28.4275 7.60971 28.5382 7.78135 28.6683 7.85127C29.573 8.37889 30.4842 8.88108 31.3954 9.39598C32.0722 9.77739 32.2284 10.1842 31.9811 10.9089C31.6557 11.8751 31.3303 12.835 30.9853 13.7949C30.9137 13.9983 30.9398 14.1445 31.0569 14.3225C31.6167 15.168 32.1634 16.0198 32.7166 16.8716C33.1461 17.5327 33.0941 17.9586 32.5148 18.5053C31.7794 19.1982 31.0504 19.8911 30.3085 20.5713C30.1458 20.7238 30.0676 20.8637 30.0937 21.0925C30.1913 22.0842 30.2564 23.0759 30.3475 24.0675C30.4191 24.8558 30.1653 25.2435 29.3973 25.4597C28.408 25.7394 27.4252 26.0191 26.4294 26.286C26.2082 26.3433 26.0845 26.445 25.9934 26.6547C25.5964 27.5956 25.1863 28.5236 24.7763 29.4581C24.4704 30.1637 24.0799 30.3544 23.3054 30.1955C22.2901 29.9921 21.2683 29.795 20.253 29.5789C20.0512 29.5344 19.908 29.5725 19.7518 29.6997C18.9448 30.3544 18.1247 31.0028 17.3111 31.6512C16.7189 32.1216 16.2828 32.1216 15.684 31.6448C14.8705 30.9965 14.0569 30.3353 13.2369 29.6997C13.1262 29.6107 12.9245 29.5662 12.7813 29.5916C11.7464 29.7823 10.7181 29.9921 9.68979 30.1955C8.9283 30.3481 8.5378 30.1574 8.22539 29.4454C7.81536 28.5109 7.40533 27.5828 7.00832 26.642C6.92371 26.445 6.80005 26.3496 6.59829 26.2924C5.57647 26.0127 4.55464 25.7266 3.53933 25.4342C2.9015 25.2499 2.63466 24.9003 2.64117 24.3536ZM26.1431 17.5009C26.1235 17.4628 26.0975 17.431 26.091 17.3929C25.6094 15.7337 25.1213 14.081 24.6526 12.4155C24.5941 12.2121 24.5095 12.1421 24.2947 12.1485C23.9497 12.1612 23.5983 12.1612 23.2533 12.1485C23.0451 12.1421 22.9474 12.2057 22.8824 12.4091C22.6481 13.1656 22.3877 13.922 22.1469 14.6785C21.8475 15.6257 21.5677 16.5792 21.2683 17.5645C21.2357 17.4374 21.2097 17.3356 21.1837 17.2339C20.8062 15.6257 20.4352 14.0174 20.0512 12.4091C20.0317 12.3138 19.934 12.1676 19.8624 12.1676C19.2507 12.1485 18.6389 12.1548 18.0206 12.1548C18.0271 12.2375 18.0206 12.2693 18.0336 12.301C18.73 14.7484 19.4199 17.1894 20.1293 19.6368C20.1553 19.7131 20.305 19.8085 20.4026 19.8085C20.8582 19.8275 21.3138 19.8084 21.7694 19.8212C21.9647 19.8275 22.0558 19.764 22.1144 19.5796C22.596 18.1175 23.0906 16.6618 23.5788 15.2061C23.6048 15.1235 23.6373 15.0345 23.6829 14.9137C23.7219 15.0218 23.748 15.0853 23.761 15.1425C24.2036 16.611 24.6461 18.0858 25.0822 19.5542C25.1408 19.7449 25.2254 19.8275 25.4402 19.8212C25.8958 19.8021 26.3513 19.8021 26.8069 19.8212C27.0608 19.8339 27.1649 19.7512 27.23 19.516C27.8938 17.1831 28.5772 14.8565 29.2476 12.5235C29.2801 12.4155 29.2997 12.3074 29.3322 12.1548C28.8115 12.1548 28.3234 12.1803 27.8418 12.1485C27.5229 12.1294 27.4187 12.2502 27.3536 12.5362C26.9631 14.189 26.5531 15.8418 26.1431 17.5009ZM4.9061 12.1612C4.9061 14.7421 4.9061 17.2721 4.9061 19.7957C5.45281 19.7957 5.97999 19.7957 6.48114 19.7957C6.48114 18.0858 6.48114 16.4012 6.48114 14.7103C6.48764 14.723 6.50717 14.7484 6.52019 14.7738C7.52899 16.3885 8.5378 18.0095 9.5466 19.6241C9.59216 19.7004 9.67677 19.8085 9.74185 19.8085C10.2821 19.8212 10.8157 19.8148 11.3559 19.8148C11.3559 17.2467 11.3559 14.7166 11.3559 12.1548C10.9264 12.1548 10.5164 12.1739 10.1063 12.1485C9.81345 12.1294 9.71582 12.2121 9.72233 12.5172C9.76789 14.0937 9.79392 15.6702 9.82646 17.2085C9.81995 17.2022 9.7744 17.1513 9.73535 17.0877C8.73956 15.524 7.74377 13.9602 6.74147 12.4028C6.67639 12.3074 6.56574 12.1739 6.46812 12.1739C5.96046 12.1485 5.43979 12.1612 4.9061 12.1612ZM12.6186 12.1739C12.6186 14.7294 12.6186 17.2594 12.6186 19.7957C14.3173 19.7957 15.9964 19.7957 17.6821 19.7957C17.6821 19.3508 17.6821 18.9185 17.6821 18.4608C16.4846 18.4608 15.3066 18.4608 14.122 18.4608C14.122 17.6471 14.122 16.8589 14.122 16.0516C14.2652 16.0516 14.3824 16.0516 14.4995 16.0516C15.2935 16.0516 16.0811 16.0579 16.8751 16.0452C16.9727 16.0452 17.1549 15.9562 17.1549 15.899C17.181 15.524 17.168 15.1425 17.168 14.723C16.1266 14.723 15.1308 14.723 14.1155 14.723C14.1155 14.2907 14.1155 13.8966 14.1155 13.4643C15.1504 13.4643 16.1657 13.4643 17.1875 13.4643C17.1875 13.013 17.1875 12.5935 17.1875 12.1676C15.658 12.1739 14.1481 12.1739 12.6186 12.1739Z" fill="#8C8C8C"/>
</svg>
