<svg width="32" height="28" viewBox="0 0 32 28" fill="none" xmlns="http://www.w3.org/2000/svg">
<path d="M30.5555 12.5271C26.8164 8.85452 23.0696 5.18948 19.3229 1.52443C19.0074 1.21524 18.6689 0.913589 18.2919 0.679811C16.4608 -0.466459 14.2605 -0.142185 12.5986 1.49426C8.87495 5.14423 5.15125 8.79419 1.41985 12.4442C-0.434304 14.2616 -0.488159 16.9614 1.35061 18.7863C3.85103 21.275 6.38992 23.7259 8.91342 26.1918C10.1598 27.406 11.6369 28.0696 13.4296 27.9942C14.2989 27.9565 15.176 27.9867 16.0454 27.9867C17.0455 27.9867 18.0457 27.9942 19.0459 27.9791C19.4383 27.9716 19.8383 27.9339 20.2307 27.8585C21.4309 27.6247 22.3926 26.9686 23.2389 26.1391C25.6932 23.7409 28.132 21.3428 30.5709 18.9372C32.4866 17.0594 32.4712 14.4049 30.5555 12.5271ZM12.8064 20.0005C12.4679 19.8195 12.1601 19.7064 11.9139 19.5178C11.6139 19.2916 11.3523 19.005 11.0753 18.7411C10.8753 18.545 10.8676 18.3565 11.0753 18.1529C12.614 16.6597 14.1451 15.1665 15.6838 13.6658C15.8761 13.4773 16.0377 13.4773 16.2377 13.6809C16.707 14.1485 17.184 14.601 17.6687 15.0534C17.9303 15.2872 17.8995 15.4833 17.661 15.7171C16.3531 16.9915 15.0606 18.2811 13.7373 19.5405C13.4988 19.7441 13.1449 19.8346 12.8064 20.0005ZM17.6918 21.8104C17.3918 22.1045 17.1225 22.4288 16.784 22.6776C16.5532 22.8435 16.2454 22.9039 15.9684 23.0094C15.5145 22.9793 15.1914 22.8209 14.9221 22.5117C14.699 22.2553 14.4451 22.0215 14.2066 21.7727C14.0297 21.5917 14.0374 21.4258 14.2143 21.2523C14.6913 20.7772 15.1606 20.3021 15.6376 19.8195C15.8453 19.6159 16.0608 19.6008 16.2762 19.8044C16.7532 20.2644 17.2148 20.732 17.6918 21.1845C17.9072 21.3956 17.9072 21.5992 17.6918 21.8104ZM17.7072 9.57848C15.3376 11.8936 12.9833 14.2163 10.606 16.5164C10.3906 16.72 10.0367 16.7879 9.74432 16.9161C9.72894 16.8859 9.71355 16.8482 9.70586 16.8181C9.28271 16.8709 8.95958 16.7125 8.68261 16.4033C8.47488 16.1771 8.25177 15.9735 8.03635 15.7623C7.7286 15.4531 7.7286 15.3626 8.04404 15.0534C9.5366 13.5904 11.0292 12.1274 12.5217 10.6569C13.545 9.65389 14.5682 8.65091 15.5915 7.64792C15.9377 7.30857 16.03 7.30857 16.3762 7.64038C16.8224 8.07023 17.261 8.51517 17.7072 8.94502C17.938 9.17125 17.938 9.35224 17.7072 9.57848Z" fill="#8C8C8C"/>
</svg>
