<svg width="26" height="36" viewBox="0 0 26 36" fill="none" xmlns="http://www.w3.org/2000/svg">
<path d="M24.9066 36C16.967 36 9.03302 36 1.09335 36C0.206077 35.6607 0 34.9821 0 34.085C0.0171731 24.7342 0.0114487 15.3776 0.0114487 6.02684C0.0114487 4.53163 0.0114487 3.03642 0.0114487 1.54121C0.0114487 1.1099 0.103038 0.713099 0.429326 0.419808C0.623954 0.247284 0.870101 0.138019 1.09335 0C6.93219 0 12.771 0 18.6099 0C18.7301 0.103514 18.8675 0.195527 18.9705 0.316294C20.0352 1.52971 21.0942 2.74313 22.1532 3.9623C23.2809 5.25623 24.4029 6.56166 25.5478 7.84409C25.8569 8.18914 26 8.53994 26 9C25.9886 17.4364 25.9886 25.8786 25.9886 34.315C25.9886 34.4933 25.9771 34.6773 25.9542 34.8556C25.897 35.2466 25.6852 35.5457 25.3531 35.7527C25.21 35.8447 25.0555 35.9195 24.9066 36ZM17.694 1.40895C17.5623 1.40895 17.4478 1.40895 17.3391 1.40895C12.1413 1.40895 6.93791 1.40895 1.7402 1.40319C1.46543 1.40319 1.39102 1.47796 1.39102 1.75399C1.39674 9.04601 1.39674 16.3438 1.39674 23.6358C1.39674 23.7393 1.39674 23.8428 1.39674 23.9521C9.15324 23.9521 16.8697 23.9521 24.609 23.9521C24.609 23.8313 24.609 23.7393 24.609 23.6415C24.609 18.9834 24.609 14.3252 24.6147 9.66709C24.6147 9.3853 24.5346 9.31054 24.2598 9.31629C22.3708 9.3278 20.4817 9.32205 18.5927 9.32205C17.9229 9.32205 17.694 9.09201 17.694 8.43067C17.694 6.21661 17.694 4.00256 17.694 1.7885C17.694 1.67348 17.694 1.56422 17.694 1.40895ZM11.8952 25.6026C11.3857 25.6428 10.653 25.7061 9.92602 25.7578C9.73712 25.7693 9.65698 25.8326 9.6627 26.0339C9.66843 28.6792 9.66843 31.3188 9.6627 33.9642C9.6627 34.1367 9.7085 34.2173 9.8974 34.2345C11.277 34.3725 12.6565 34.4358 14.0189 34.0907C15.3241 33.7572 16.3373 33.0441 16.8468 31.7387C17.2417 30.7438 17.3047 29.7144 17.0929 28.6677C16.8582 27.5176 16.1999 26.6837 15.1581 26.1546C14.1964 25.6716 13.1603 25.6313 11.8952 25.6026ZM4.23602 31.2843C4.91722 31.2096 5.55834 31.1751 6.17657 31.0543C7.33862 30.83 8.12285 30.1514 8.36328 28.9553C8.55218 28.0351 8.3919 27.1898 7.7107 26.4882C7.25275 26.0166 6.68032 25.8038 6.06209 25.7061C4.8657 25.522 3.66358 25.6198 2.47292 25.7751C2.40995 25.7866 2.31264 25.9476 2.31264 26.0396C2.30691 28.685 2.30691 31.3304 2.30119 33.9757C2.30119 34.2173 2.38705 34.269 2.59886 34.2633C2.95949 34.2518 3.32585 34.2633 3.68648 34.2575C4.31044 34.2518 4.22457 34.3438 4.22457 33.7054C4.23602 32.8888 4.23602 32.0665 4.23602 31.2843ZM23.6874 27.2703C23.6874 26.8045 23.6759 26.3674 23.6931 25.9304C23.6988 25.7233 23.6187 25.6716 23.424 25.6716C21.8613 25.6773 20.2985 25.6773 18.7301 25.6716C18.5126 25.6716 18.4553 25.7463 18.4553 25.9534C18.461 28.6332 18.461 31.3189 18.4553 33.9987C18.4553 34.223 18.5354 34.2748 18.7415 34.2748C19.2109 34.2633 19.6746 34.2633 20.144 34.2748C20.3615 34.2805 20.4188 34.2 20.4188 33.993C20.4073 33.0556 20.413 32.1125 20.413 31.1751C20.413 31.0658 20.413 30.9566 20.413 30.8243C20.5619 30.8243 20.6649 30.8243 20.7737 30.8243C21.5751 30.8243 22.3765 30.8128 23.1779 30.83C23.424 30.8358 23.4927 30.7495 23.4813 30.5195C23.4641 30.1859 23.4641 29.8466 23.4813 29.5131C23.4927 29.2888 23.4183 29.2141 23.1893 29.2141C22.4337 29.2256 21.6838 29.2198 20.9282 29.2198C20.7679 29.2198 20.6077 29.2198 20.4359 29.2198C20.4359 28.5585 20.4359 27.9316 20.4359 27.2703C21.5178 27.2703 22.5826 27.2703 23.6874 27.2703Z" fill="#8C8C8C"/>
<path d="M9.54279 8.20075C9.52562 8.44229 9.49127 8.80459 9.47982 9.16689C9.4741 9.2589 9.52562 9.37392 9.59431 9.43718C10.9109 10.6161 12.2161 11.8008 13.5556 12.9509C14.357 13.641 15.1984 14.2851 16.0342 14.9407C16.1659 15.0385 16.3548 15.1017 16.5208 15.1075C17.7801 15.142 19.0395 15.1305 20.2931 15.1937C21.0144 15.2282 21.7013 15.4468 22.2279 15.9988C22.7317 16.5279 22.8462 17.2928 22.5199 17.9944C22.1764 18.7305 21.5868 19.0813 20.8198 19.0525C20.0928 19.0295 19.5146 18.6845 18.9422 18.2877C17.9862 17.6206 17.036 16.9535 16.08 16.2979C15.9712 16.2231 15.8167 16.1829 15.685 16.1886C14.1223 16.2864 12.571 16.4532 11.0426 16.7982C9.81183 17.08 8.61545 17.448 7.4763 18.0001C7.40189 18.0346 7.35037 18.1496 7.31602 18.2359C7.04125 18.9605 6.82945 19.7081 6.49744 20.404C6.14253 21.1516 5.57582 21.7151 4.72861 21.9049C3.87569 22.1004 3.24028 21.4851 3.29753 20.611C3.3605 19.7139 3.89858 19.1445 4.53399 18.6442C5.07208 18.2244 5.64451 17.8448 6.21694 17.4653C6.3944 17.3503 6.48599 17.2238 6.53751 17.0282C7.0298 14.9809 7.52782 12.9394 8.02584 10.8979C8.10598 10.5643 8.16895 10.225 8.26626 9.89149C8.31778 9.71321 8.26626 9.6097 8.14605 9.48893C7.53927 8.9081 6.95539 8.30427 6.55468 7.55091C6.26846 7.01609 6.14253 6.45826 6.36578 5.86593C6.56613 5.32535 7.29312 4.84229 7.90563 4.84229C8.51813 4.84229 9.05622 5.24484 9.27947 5.87168C9.52562 6.59053 9.58858 7.32663 9.54279 8.20075ZM7.6881 16.7464C9.91487 15.8263 12.2103 15.4583 14.5573 15.211C12.7484 13.6525 10.9796 12.1286 9.19361 10.5873C8.69559 12.6231 8.19757 14.6474 7.6881 16.7464ZM17.7859 16.1886C17.7687 16.2059 17.7572 16.2174 17.7401 16.2346C17.7801 16.2576 17.8259 16.2806 17.8603 16.3036C18.5357 16.7522 19.2055 17.2123 19.8867 17.6493C20.1099 17.7931 20.3561 17.9081 20.608 17.9771C21.0258 18.0864 21.3178 17.9714 21.4895 17.6896C21.7986 17.1893 21.6383 16.6372 21.0774 16.4647C20.6309 16.3266 20.1557 16.2346 19.6863 16.2001C19.0567 16.1541 18.4213 16.1886 17.7859 16.1886ZM8.42654 8.34452C8.57538 7.8442 8.50096 6.82631 8.30633 6.29149C8.19184 5.96944 8.04301 5.86593 7.79114 5.92344C7.44768 5.9982 7.2416 6.23973 7.31602 6.55027C7.37899 6.81481 7.4763 7.0851 7.62513 7.30938C7.85411 7.66018 8.1346 7.97072 8.42654 8.34452ZM4.38515 20.8583C5.04918 20.979 5.90211 19.6218 5.97652 18.8857C5.12359 19.4263 4.11039 20.2544 4.38515 20.8583Z" fill="#8C8C8C"/>
<path d="M11.6373 32.7796C11.6316 32.6646 11.6258 32.5783 11.6258 32.4978C11.6258 30.8244 11.6316 29.1451 11.6201 27.4716C11.6201 27.2186 11.6888 27.1381 11.935 27.1381C12.5131 27.1323 13.0913 27.0978 13.6523 27.3164C14.4995 27.6442 14.946 28.2998 15.0948 29.1624C15.2207 29.8697 15.1578 30.5771 14.8945 31.2499C14.5281 32.193 13.7897 32.6589 12.8222 32.7796C12.4444 32.8199 12.0552 32.7796 11.6373 32.7796Z" fill="#8C8C8C"/>
<path d="M4.25977 27.138C4.68909 27.138 5.09552 27.1035 5.50195 27.1438C6.03432 27.1955 6.38923 27.5521 6.49226 28.0352C6.61248 28.6045 6.39495 29.1681 5.9599 29.4441C5.52485 29.7202 4.84365 29.8064 4.26549 29.6569C4.25977 28.8288 4.25977 27.9949 4.25977 27.138Z" fill="#8C8C8C"/>
</svg>
