<svg width="26" height="36" viewBox="0 0 26 36" fill="none" xmlns="http://www.w3.org/2000/svg">
<path d="M26 8.97012C26 8.59051 25.9091 8.27417 25.6503 7.97891C23.4539 5.47627 21.2645 2.95958 19.0821 0.442882C18.8162 0.133568 18.5225 0 18.1168 0C12.6398 0.00702988 7.16277 0.00702988 1.67877 0.00702988C0.531612 0.00702988 0 0.54833 0 1.70826C0 12.5694 0 23.4306 0 34.2847C0 35.4657 0.531612 36 1.70675 36C9.22626 36 16.7458 36 24.2653 36C25.4824 36 26 35.4798 26 34.2425C26 30.0457 26 25.8559 26 21.6591C25.993 17.4271 25.993 13.2021 26 8.97012ZM6.42131 30.6151C5.71482 30.9877 4.95238 31.058 4.16895 31.0369C4.05703 31.0369 3.95211 31.0229 3.80522 31.0088C3.80522 31.9649 3.80522 32.8928 3.80522 33.8418C3.21065 33.8418 2.64407 33.8418 2.0565 33.8418C2.0565 31.2337 2.0565 28.6397 2.0565 26.0105C2.3293 25.9754 2.6021 25.9262 2.8749 25.9121C3.84019 25.8629 4.80549 25.7786 5.77078 25.9824C6.841 26.2144 7.54748 26.9385 7.69438 28.007C7.84826 29.0826 7.33064 30.1301 6.42131 30.6151ZM15.3818 33.8629C14.7942 33.8629 14.2136 33.8699 13.633 33.8559C13.5701 33.8559 13.4791 33.7645 13.4442 33.6872C12.4929 31.8875 11.5486 30.0808 10.6043 28.2812C10.5693 28.2109 10.5343 28.1406 10.4713 28.0281C10.4713 29.9895 10.4713 31.9016 10.4713 33.8348C9.96072 33.8348 9.4361 33.8348 8.88351 33.8348C8.88351 31.2127 8.88351 28.5765 8.88351 25.8981C9.18429 25.8981 9.48507 25.8981 9.79284 25.8981C10.1006 25.8981 10.4084 25.9121 10.7162 25.891C10.891 25.884 10.982 25.9473 11.0659 26.0949C12.0172 27.8172 13.0525 29.4974 13.8009 31.3322C13.8219 31.3814 13.8569 31.4236 13.8569 31.4236C13.8219 29.6169 13.7799 27.7821 13.738 25.9051C14.3255 25.9051 14.8432 25.9051 15.3888 25.9051C15.3818 28.5554 15.3818 31.1916 15.3818 33.8629ZM23.314 33.5747C21.9639 33.9403 20.6069 34.109 19.2359 33.7153C17.6971 33.2794 16.6968 32 16.6129 30.3902C16.5569 29.2724 16.7528 28.225 17.4872 27.3392C18.1867 26.4886 19.124 26.0598 20.1872 25.8981C21.1875 25.7504 22.1738 25.8067 23.1321 26.1511C23.1811 26.1722 23.23 26.1933 23.3 26.2285C23.1811 26.6924 23.0621 27.1494 22.9362 27.6344C22.7124 27.5712 22.5026 27.4939 22.2927 27.4517C21.4813 27.283 20.6699 27.2267 19.8795 27.5571C19.145 27.8664 18.6973 28.4218 18.5504 29.2021C18.4315 29.8348 18.4455 30.4745 18.7043 31.0721C19.117 32.0281 19.9704 32.5272 21.0616 32.4851C21.852 32.4569 21.852 32.4569 21.852 31.6626C21.852 31.3533 21.852 31.051 21.852 30.7206C21.4393 30.7206 21.0546 30.7206 20.6559 30.7206C20.6559 30.2496 20.6559 29.7997 20.6559 29.3286C21.6142 29.3286 22.5725 29.3286 23.5518 29.3286C23.5588 29.42 23.5658 29.5114 23.5658 29.6028C23.5658 30.812 23.5658 32.0211 23.5728 33.2232C23.5658 33.42 23.5168 33.5185 23.314 33.5747ZM24.566 13.5817C24.566 17.0404 24.566 20.4991 24.566 23.9719H23.7337C23.5168 23.9719 23.293 23.9719 23.0761 23.9719H1.42696V23.9508C1.42696 20.4921 1.42696 17.0404 1.42696 13.5817C1.42696 9.53251 1.42696 5.4833 1.42696 1.42004C6.85499 1.42004 12.2411 1.42004 17.6831 1.42004C17.6831 1.56063 17.6831 1.6942 17.6831 1.82777C17.6831 2.92443 17.6831 4.02812 17.6831 5.12478H17.6761V7.93673H17.6831C17.6831 8.0703 17.6831 8.19684 17.6831 8.33041C17.6831 9.07557 17.8719 9.31459 18.5504 9.34271H21.2575C22.2228 9.34271 23.195 9.34271 24.1603 9.34271C24.2863 9.34271 24.4122 9.34271 24.566 9.34271C24.566 10.7627 24.566 12.1757 24.566 13.5817Z" fill="#8C8C8C"/>
<path d="M5.05743 27.2759C4.70769 27.2127 4.33696 27.2408 3.97323 27.2548C3.91727 27.2548 3.81934 27.3954 3.81234 27.4798C3.79136 27.7961 3.80535 28.1195 3.80535 28.4359C3.80535 28.7733 3.79835 29.1107 3.81234 29.4482C3.81234 29.5185 3.91027 29.638 3.96623 29.645C4.39991 29.6872 4.84059 29.7012 5.25329 29.5044C5.74993 29.2724 5.98775 28.8155 5.9248 28.2109C5.88283 27.7329 5.58205 27.3673 5.05743 27.2759Z" fill="#8C8C8C"/>
<path d="M18.5082 13.5117C18.5082 13.5042 18.5082 13.5042 18.5082 13.5117C18.5082 13.5042 18.5007 13.5117 18.5082 13.5117Z" fill="#8C8C8C"/>
<path d="M15.7939 16.3093C15.7939 17.2513 15.7939 18.1511 15.7939 19.0861C16.7033 19.0861 17.5986 19.0861 18.5219 19.0861C18.5219 20.0351 18.5219 20.942 18.5219 21.8348C19.4593 21.8348 20.3616 21.8348 21.2569 21.8348C21.2569 20.8998 21.2569 19.993 21.2569 19.058C20.3476 19.058 19.4663 19.058 18.5709 19.058C18.5709 18.123 18.5709 17.2232 18.5709 16.2882C19.4733 16.2882 20.3406 16.2882 21.236 16.2882C21.236 15.3533 21.236 14.4464 21.236 13.5044C20.3196 13.5044 19.4103 13.5044 18.508 13.5044C18.508 14.4253 18.508 15.3392 18.508 16.3093C17.5637 16.3093 16.6753 16.3093 15.7939 16.3093Z" fill="#8C8C8C"/>
<path d="M7.47754 13.4843H7.48563V13.4763C7.48563 13.4763 7.47754 13.4843 7.47754 13.4843Z" fill="#8C8C8C"/>
<path d="M10.1772 16.3023C10.1772 15.3603 10.1772 14.4534 10.1772 13.4904C9.26788 13.4904 8.37953 13.4904 7.48418 13.4904C7.4632 13.7856 7.44221 14.0879 7.43522 14.3832C7.42822 15.0088 7.43522 15.6415 7.43522 16.3093C6.5049 16.3093 5.63054 16.3093 4.74219 16.3093C4.74219 17.2513 4.74219 18.1582 4.74219 19.058C5.66551 19.058 6.56086 19.058 7.44921 19.058C7.44921 18.1512 7.44921 17.2443 7.44921 16.3023C8.39352 16.3023 9.27487 16.3023 10.1772 16.3023Z" fill="#8C8C8C"/>
<path d="M12.9837 19.058H12.9756V19.066L12.9837 19.058Z" fill="#8C8C8C"/>
<path d="M12.9837 19.058L12.9756 19.066C12.9756 19.066 12.9837 19.066 12.9837 19.058Z" fill="#8C8C8C"/>
<path d="M15.7244 21.8488C15.7244 20.9209 15.7244 20.007 15.7244 19.058C14.7871 19.058 13.8848 19.058 12.9824 19.058C12.9824 19.9859 12.9824 20.9139 12.9824 21.8488C13.9197 21.8488 14.8151 21.8488 15.7244 21.8488Z" fill="#8C8C8C"/>
<path d="M7.45679 19.058C7.45679 19.058 7.4493 19.058 7.45679 19.058C7.4493 19.058 7.4493 19.058 7.45679 19.058C7.45679 19.0654 7.4493 19.0654 7.45679 19.058Z" fill="#8C8C8C"/>
<path d="M7.45703 21.8559C8.38735 21.8559 9.2827 21.8559 10.192 21.8559C10.192 20.928 10.192 20.0141 10.192 19.0651C9.26171 19.0651 8.35937 19.0651 7.45703 19.0651C7.45703 19.986 7.45703 20.9139 7.45703 21.8559Z" fill="#8C8C8C"/>
<path d="M7.49118 5.15991C6.58884 5.15991 5.6865 5.15991 4.76317 5.15991C4.76317 6.10192 4.76317 7.00877 4.76317 7.94374C5.65152 7.94374 6.52588 7.94374 7.42822 7.94374C7.42822 8.87872 7.42822 9.77854 7.42822 10.7135C6.53987 10.7135 5.65852 10.7135 4.74219 10.7135C4.74219 11.6485 4.74219 12.5553 4.74219 13.4903C5.63753 13.4903 6.53987 13.4903 7.47719 13.4903C7.47719 12.5905 7.47719 11.6836 7.47719 10.7416C8.40051 10.7416 9.29586 10.7416 10.2052 10.7416C10.2052 9.80666 10.2052 8.91387 10.2052 7.96483C9.32384 7.96483 8.43549 7.96483 7.49118 7.96483C7.49118 6.99471 7.49118 6.0738 7.49118 5.15991Z" fill="#8C8C8C"/>
<path d="M7.49219 5.15283C7.49219 5.16025 7.49219 5.16025 7.49219 5.15283C7.49969 5.16025 7.49219 5.15283 7.49219 5.15283Z" fill="#8C8C8C"/>
<path d="M18.5439 10.7065C18.5439 10.714 18.5439 10.714 18.5439 10.7065C18.5515 10.7065 18.5515 10.7065 18.5439 10.7065Z" fill="#8C8C8C"/>
<path d="M15.8232 7.95082C16.3479 7.95082 16.8725 7.95082 17.4041 7.95082V5.13184C16.8795 5.13184 16.3549 5.13184 15.8232 5.13184C15.8232 6.09493 15.8232 7.00178 15.8232 7.95082Z" fill="#8C8C8C"/>
<path d="M21.2578 10.7065C21.2578 10.3128 21.2578 9.91914 21.2578 9.51843H18.5508C18.5508 9.91211 18.5508 10.3128 18.5508 10.7065C19.4391 10.7065 20.3345 10.7065 21.2578 10.7065Z" fill="#8C8C8C"/>
<path d="M13.0257 10.7145C13.0257 10.7065 13.0257 10.7065 13.0257 10.7145C13.0257 10.7065 13.0176 10.7065 13.0176 10.7065L13.0257 10.7145Z" fill="#8C8C8C"/>
<path d="M12.9961 5.13184V5.13984H13.0042L12.9961 5.13184Z" fill="#8C8C8C"/>
<path d="M13.0319 7.1283C13.0249 6.46749 13.0109 5.80668 12.9969 5.14587C12.1016 5.14587 11.2132 5.14587 10.2969 5.14587C10.2969 6.10194 10.2969 7.00176 10.2969 7.95079C11.1852 7.95079 12.0666 7.95079 13.0249 7.95079C13.0249 8.89983 13.0249 9.80668 13.0249 10.7065C13.9202 10.7065 14.8086 10.7065 15.7319 10.7065C15.7319 9.79965 15.7319 8.89983 15.7319 7.95782C14.8506 7.95782 13.9692 7.95782 13.0389 7.95782C13.0319 7.65554 13.0389 7.3884 13.0319 7.1283Z" fill="#8C8C8C"/>
<path d="M13.0176 10.7143H13.0257C13.0257 10.7143 13.0176 10.7063 13.0176 10.7143C13.0176 10.7063 13.0176 10.7063 13.0176 10.7143Z" fill="#8C8C8C"/>
<path d="M10.2754 13.4974C11.1777 13.4974 12.0661 13.4974 13.0034 13.4974C12.9894 14.1582 12.9754 14.819 12.9684 15.4728C12.9614 15.7399 12.9684 16 12.9684 16.3023C12.0381 16.3023 11.1567 16.3023 10.2754 16.3023C10.2754 17.2443 10.2754 18.1441 10.2754 19.051C11.1987 19.051 12.0871 19.051 12.9824 19.051C12.9824 18.1441 12.9824 17.2373 12.9824 16.2953C13.9407 16.2953 14.8151 16.2953 15.7104 16.2953C15.7104 15.3463 15.7104 14.4464 15.7104 13.4904C14.8011 13.4904 13.9127 13.4904 13.0244 13.4904C13.0244 12.5624 13.0244 11.6345 13.0244 10.7065C12.122 10.7065 11.2127 10.7065 10.2824 10.7065C10.2754 11.6556 10.2754 12.5695 10.2754 13.4974Z" fill="#8C8C8C"/>
<path d="M15.8018 13.5044C16.7041 13.5044 17.5855 13.5044 18.5088 13.5044C18.5228 13.5044 18.5298 13.5044 18.5438 13.5044C18.5438 12.5694 18.5438 11.6414 18.5438 10.7135C17.6414 10.7135 16.7391 10.7135 15.8088 10.7135C15.8018 11.6555 15.8018 12.5764 15.8018 13.5044Z" fill="#8C8C8C"/>
<path d="M18.5439 9.51845H18.551C18.551 9.46221 18.551 9.40597 18.551 9.34973H18.5439V9.51845Z" fill="#8C8C8C"/>
</svg>
