<svg width="27" height="28" viewBox="0 0 27 28" fill="none" xmlns="http://www.w3.org/2000/svg">
<path d="M17.7712 27.9906C17.6101 27.9766 17.4489 27.9531 17.2831 27.9437C16.2121 27.8922 15.1411 27.85 14.0701 27.7937C13.127 27.7468 12.1982 27.5968 11.2694 27.4186C10.0136 27.1795 8.75773 26.9545 7.50191 26.72C7.26497 26.6778 7.02802 26.6309 6.78159 26.5841C6.78159 26.495 6.78159 26.4293 6.78159 26.359C6.78159 22.7019 6.78159 19.0449 6.77686 15.3878C6.77686 15.1674 6.82424 15.0737 7.06119 15.1018C7.92842 15.2003 8.4497 14.6517 8.93781 14.0797C9.70552 13.1748 10.2552 12.134 10.7528 11.065C11.0561 10.4133 11.3452 9.74749 11.6106 9.07703C11.8997 8.33624 12.402 7.77361 13.0323 7.31413C13.8142 6.74213 14.4587 6.06698 14.8236 5.16678C15.1458 4.36504 15.3449 3.52579 15.4491 2.66778C15.5392 1.91762 15.6102 1.16745 15.6908 0.417281C15.7192 0.131279 15.9657 0.0937709 16.1647 0C16.3069 0 16.449 0 16.5912 0C16.6291 0.0140656 16.6623 0.0375084 16.7002 0.0421969C17.6527 0.150033 18.373 0.632954 18.9085 1.39719C19.3208 1.98794 19.4677 2.67716 19.5293 3.37575C19.6336 4.61822 19.3967 5.79973 18.8138 6.91561C18.3399 7.83456 17.8375 8.73945 17.539 9.73811C17.4158 10.1507 17.3352 10.5727 17.4489 10.9993C17.4821 11.1165 17.539 11.1775 17.6764 11.1681C18.0603 11.1447 18.4489 11.1306 18.8327 11.1259C20.662 11.1165 22.4912 11.065 24.3157 11.2619C24.7374 11.3088 25.1592 11.3791 25.5004 11.6604C26.0786 12.1386 26.5003 12.7294 26.8131 13.3999C27.0548 13.9203 27.1164 14.422 26.6662 14.8861C26.4956 15.0643 26.3629 15.2847 26.2207 15.4863C26.0691 15.7066 26.0075 15.9411 26.1402 16.1896C26.3582 16.5928 26.5809 16.9913 26.8084 17.3898C27.088 17.8727 27.069 18.1541 26.7041 18.5713C26.5003 18.8104 26.2918 19.0449 26.088 19.2793C25.8321 19.57 25.7326 19.8982 25.8748 20.2733C26.0075 20.6296 26.1307 20.9906 26.2776 21.3376C26.4766 21.8064 26.434 22.2331 26.0928 22.6129C25.7942 22.9457 25.472 23.2552 25.1592 23.574C24.9128 23.8225 24.7564 24.1038 24.7848 24.4695C24.8038 24.7415 24.8038 25.0181 24.7848 25.29C24.7706 25.4682 24.728 25.6604 24.6474 25.8198C24.382 26.3262 23.9697 26.72 23.5148 27.0529C23.1641 27.3061 22.785 27.5827 22.3774 27.6906C21.7756 27.85 21.1406 27.8734 20.515 27.9531C20.316 27.9766 20.1122 27.9859 19.9085 28C19.1929 27.9906 18.482 27.9906 17.7712 27.9906Z" fill="#DADADA"/>
<path d="M5.65356 20.9718C5.65356 22.6972 5.6346 24.4226 5.66304 26.1479C5.67726 26.9403 5.1228 27.456 4.36931 27.4326C3.32674 27.3998 2.28417 27.4232 1.2416 27.4232C0.473894 27.4279 0 26.9684 0 26.2089C0 23.7943 0 21.3844 0 18.9698C0 17.8914 0 16.813 0 15.7347C0 15.0501 0.502328 14.5766 1.04257 14.5719C1.37903 14.5672 1.7155 14.5438 2.05196 14.5438C2.81967 14.5391 3.58264 14.5485 4.35035 14.5391C5.12754 14.5344 5.66778 14.9986 5.6583 15.7675C5.64408 17.5023 5.65356 19.237 5.65356 20.9718Z" fill="#DADADA"/>
</svg>
