<svg width="27" height="30" viewBox="0 0 27 30" fill="none" xmlns="http://www.w3.org/2000/svg">
<path d="M13.9463 17.3169C16.1081 15.8159 18.2335 14.3528 20.4137 12.8422C20.4137 14.3528 20.4137 15.7874 20.4137 17.2124C20.6326 17.2789 20.7329 17.1269 20.8515 17.0509C22.7215 15.7589 24.5915 14.4668 26.4615 13.1747C26.58 13.0987 26.6895 12.9087 26.8537 13.0227C27.0088 13.1272 26.9814 13.3077 26.9723 13.4978C26.954 14.0868 26.954 14.6663 26.954 15.2553C26.954 18.4095 26.9449 21.5541 26.954 24.7083C26.954 26.1143 26.9905 27.5204 26.9996 28.936C27.0088 29.8195 26.8446 29.9905 25.9871 29.9905C20.6508 29.981 15.3145 29.9715 9.97825 29.9715C6.96803 29.9715 3.95782 29.9905 0.947602 30C0.0445378 30 -0.0649246 29.886 0.0262941 28.9645C0.327316 25.8483 0.637459 22.7417 0.938481 19.6255C1.23038 16.6044 1.50404 13.5928 1.78681 10.5716C1.89628 9.36507 2.02398 8.14902 2.13344 6.94246C2.16993 6.48644 2.45271 6.37244 2.82671 6.37244C3.5747 6.38194 4.31357 6.39144 5.06156 6.39144C5.58151 6.39144 6.09233 6.37244 6.61228 6.37244C7.19608 6.37244 7.34203 6.53394 7.34203 7.12297C7.34203 10.2391 7.34203 13.3648 7.34203 16.4809C7.34203 16.7089 7.24169 16.9844 7.4971 17.1269C7.77076 17.2789 7.89846 16.9939 8.07178 16.8704C9.58601 15.8254 11.1002 14.7708 12.6145 13.7258C12.8425 13.5643 13.0706 13.4123 13.2804 13.2317C13.4263 13.1082 13.5814 13.0512 13.7456 13.1177C13.9371 13.2032 13.9007 13.4028 13.9007 13.5738C13.9007 14.7613 13.9007 15.9489 13.9007 17.1364C13.9007 17.1744 13.9189 17.2124 13.9463 17.3169ZM22.2015 22.7892C22.2015 22.5042 22.2015 22.2191 22.2015 21.9341C22.2015 20.4141 22.0921 20.3191 20.6326 20.4616C20.1035 20.5091 20.0214 20.6041 20.0214 21.1741C20.0214 22.1716 20.0123 23.1692 20.0123 24.1667C20.0123 24.7843 20.1947 24.9743 20.8059 24.9838C21.0339 24.9838 21.262 24.9838 21.49 24.9743C22.0282 24.9458 22.1833 24.7938 22.2015 24.2237C22.2107 23.7392 22.2015 23.2642 22.2015 22.7892ZM15.6794 22.7227C15.6703 22.7227 15.652 22.7227 15.6429 22.7227C15.6429 22.2192 15.652 21.7156 15.6429 21.2121C15.6338 20.7941 15.497 20.4996 15.0226 20.4521C14.7307 20.4236 14.448 20.4521 14.1652 20.4616C13.554 20.4806 13.4263 20.6421 13.481 21.2786C13.5449 22.0006 13.5996 22.7322 13.4993 23.4542C13.2986 24.9173 13.7365 25.0883 15.0135 24.9743C15.497 24.9268 15.6977 24.6608 15.6794 24.1477C15.6703 23.6727 15.6794 23.1977 15.6794 22.7227ZM9.07518 22.8652C9.07518 22.3332 9.08431 21.7916 9.07518 21.2596C9.06606 20.6516 8.90187 20.4806 8.30895 20.4711C8.00793 20.4616 7.7069 20.4711 7.40588 20.4901C7.11398 20.4996 6.95891 20.6706 6.95891 20.9746C6.97716 22.0956 6.98628 23.2167 6.94979 24.3282C6.94067 24.7463 7.17784 24.9648 7.57008 24.9838C7.91671 24.9933 8.26334 24.9838 8.61909 24.9743C8.9566 24.9648 9.10255 24.8033 9.08431 24.4422C9.05694 23.9102 9.07518 23.3877 9.07518 22.8652Z" fill="#DADADA"/>
<path d="M11.1458 4.96641C9.8049 4.89041 8.60082 5.02341 7.38761 5.00441C6.73084 4.99491 6.58489 4.7764 6.77645 4.12087C7.02274 3.30384 7.57917 2.79081 8.29068 2.4583C9.07516 2.09728 9.89612 1.90727 10.7536 1.87877C11.7661 1.84077 12.7878 1.85977 13.7729 1.54626C14.4388 1.33725 14.9861 0.995232 15.3236 0.330202C15.4513 0.0641902 15.6611 -0.0688158 15.9622 0.0356889C16.2723 0.149694 16.2358 0.387205 16.1902 0.653217C15.7615 3.37984 14.1652 4.84291 11.5107 4.92841C11.3556 4.93791 11.1914 4.95691 11.1458 4.96641Z" fill="#DADADA"/>
</svg>
