<svg width="30" height="28" viewBox="0 0 30 28" fill="none" xmlns="http://www.w3.org/2000/svg">
<path d="M24.7214 26.7407C24.7214 27.7664 23.7738 28.2853 22.8263 27.8147C20.7712 26.7769 18.6668 25.7874 16.6978 24.6169C15.4795 23.8929 14.532 23.8929 13.3137 24.6048C11.3693 25.7512 9.30189 26.7045 7.296 27.7543C6.76684 28.0319 6.24998 28.1284 5.74543 27.7543C5.25319 27.3923 5.22858 26.8976 5.32702 26.3425C5.80696 23.7119 6.24998 21.0813 6.72992 18.4507C6.80375 18.0645 6.693 17.8232 6.40996 17.5577C4.4656 15.7115 2.53355 13.8532 0.589185 12.0069C0.170778 11.6087 -0.14918 11.1864 0.0723299 10.5709C0.281533 9.9676 0.76147 9.79866 1.36447 9.72626C4.0595 9.35219 6.75453 8.94191 9.44956 8.5799C9.83105 8.53163 10.0156 8.37476 10.1756 8.06102C11.357 5.67176 12.5753 3.30663 13.7567 0.917373C14.0151 0.386427 14.3597 0.0002837 14.9996 0.0002837C15.6395 -0.0117833 15.9841 0.362293 16.2548 0.893239C17.4362 3.27043 18.6545 5.64763 19.8359 8.02482C20.0082 8.36269 20.2051 8.53163 20.5989 8.5799C23.3185 8.94191 26.0258 9.35219 28.7455 9.72626C29.3239 9.81073 29.7546 10.04 29.9392 10.6072C30.1238 11.1622 29.8653 11.5725 29.4715 11.9466C27.5272 13.7928 25.5951 15.6511 23.6385 17.4853C23.3062 17.7991 23.2078 18.0887 23.2939 18.5351C23.7738 21.1657 24.2292 23.7964 24.6845 26.427C24.7091 26.5597 24.7091 26.6804 24.7214 26.7407Z" fill="#DADADA"/>
</svg>
