<svg width="26" height="30" viewBox="0 0 26 30" fill="none" xmlns="http://www.w3.org/2000/svg">
<path d="M10.8178 0.0133511C15.1689 2.13618 17.4842 5.8745 18.8415 10.3338C18.908 10.534 18.9745 10.7477 19.0943 11.0681C20.5181 9.41255 20.2653 7.6502 19.7862 5.79439C19.8661 5.8478 19.9326 5.8745 19.9858 5.91455C22.8467 8.70494 24.9225 11.9493 25.7341 15.9012C26.5991 20.0801 25.3217 23.6048 22.3677 26.5955C21.0636 27.9172 19.5733 28.9853 17.8302 29.9733C19.3072 26.8091 19.4802 23.6182 18.6419 20.4139C17.8036 17.1963 16.1004 14.5127 13.3327 12.4433C13.4923 15.4473 12.867 18.1175 11.0307 20.5607C10.9775 19.7463 10.9908 19.0387 10.8577 18.3712C10.7379 17.717 10.4585 17.0895 10.2456 16.4486C10.1791 16.4619 10.1259 16.4753 10.0593 16.4753C9.92626 16.8892 9.84642 17.3164 9.66013 17.7036C9.04804 18.9853 8.5291 20.3204 7.74402 21.482C6.02751 24.0454 5.8013 26.6622 7.0521 29.4392C7.10532 29.5728 7.15855 29.7063 7.265 30C4.7368 28.518 2.44811 27.0227 1.03765 24.5394C-0.479272 21.8692 -0.173228 19.1055 0.931196 16.3952C1.55659 14.8598 2.35497 13.3912 2.99367 11.8558C3.37956 10.9479 3.60576 9.9733 3.8985 9.03872C4.69688 10.4139 4.90978 11.9893 5.00292 13.7784C5.40211 13.2844 5.70816 12.8972 6.0142 12.51C7.78394 10.1602 9.36739 7.7036 10.2456 4.85981C10.7379 3.28438 11.044 1.66889 10.698 0C10.7246 0.0133511 10.7779 0.0133511 10.8178 0.0133511Z" fill="#DADADA"/>
</svg>
