<svg width="26" height="36" viewBox="0 0 26 36" fill="none" xmlns="http://www.w3.org/2000/svg">
<path d="M0 17.9824C0 12.5343 0 7.08612 0 1.63796C0 0.773286 0.377826 0.224956 1.0915 0.0492091C1.24543 0.0140598 1.41335 0.00702988 1.57427 0.00702988C7.11572 0.00702988 12.6502 0.00702988 18.1916 0C18.5694 0 18.8283 0.140598 19.0662 0.414763C21.2632 2.94552 23.4742 5.47627 25.6782 8C25.902 8.25308 26 8.52724 26 8.86468C26 17.3919 26 25.9192 25.993 34.4534C25.993 35.4306 25.4123 36 24.4397 36C16.8132 36 9.18676 36 1.56028 36C0.552745 36 0 35.4236 0 34.355C0 28.8998 0 23.4376 0 17.9824ZM17.7158 1.44112C12.2443 1.44112 6.84284 1.44112 1.43434 1.44112C1.43434 8.95606 1.43434 16.4499 1.43434 23.9508C9.15877 23.9508 16.8622 23.9508 24.5797 23.9508C24.5797 19.0791 24.5797 14.2214 24.5797 9.37083C23.4672 9.37083 22.3757 9.37083 21.2492 9.37083C21.2492 12.9139 21.2492 16.4359 21.2492 19.9578C15.2949 19.9578 9.38267 19.9578 3.44941 19.9578C3.44941 16.3234 3.44941 12.703 3.44941 9.05448C8.2282 9.05448 12.993 9.05448 17.7158 9.05448C17.7158 6.50264 17.7158 3.98594 17.7158 1.44112ZM10.4322 34.1933C10.3482 34.0387 10.2922 33.9262 10.2293 33.8207C9.50861 32.5624 8.78794 31.304 8.05328 30.0598C7.89935 29.7997 7.91335 29.6169 8.06028 29.3638C8.75296 28.1898 9.43165 26.9947 10.1103 25.8137C10.1733 25.7083 10.2293 25.5958 10.3062 25.4482C9.92142 25.4482 9.59257 25.4482 9.27072 25.4482C8.8789 25.4552 8.39612 25.3286 8.10926 25.5114C7.82939 25.6942 7.73143 26.1793 7.57051 26.5448C7.29064 27.1775 7.02476 27.8172 6.73089 28.4921C6.31808 27.6134 5.89828 26.7909 5.54844 25.9402C5.38052 25.5395 5.17061 25.406 4.74381 25.4341C4.19806 25.4763 3.64532 25.4411 3.05059 25.4411C3.14855 25.6169 3.20452 25.7294 3.26749 25.8418C3.94618 27.051 4.62487 28.2671 5.31055 29.4763C5.42949 29.6801 5.43649 29.8348 5.31755 30.0457C4.58988 31.297 3.87621 32.5624 3.16254 33.8207C3.09957 33.9262 3.05059 34.0387 2.96663 34.1933C3.44941 34.1933 3.87621 34.1441 4.28202 34.2074C5.00269 34.3199 5.36652 34.0316 5.59742 33.3568C5.87029 32.5835 6.25511 31.8453 6.60495 31.058C6.67492 31.1916 6.73089 31.29 6.77987 31.3954C7.19968 32.246 7.61948 33.0896 8.04629 33.9332C8.10226 34.0387 8.2282 34.1793 8.32616 34.1863C9.01184 34.2004 9.69053 34.1933 10.4322 34.1933ZM23.4182 25.7223C22.0398 25.2232 20.6964 25.0896 19.3671 25.6872C17.8488 26.362 17.401 28.2953 18.5274 29.4482C18.9123 29.8418 19.458 30.0949 19.9478 30.3691C20.3536 30.594 20.8014 30.7417 21.2142 30.9526C21.592 31.1424 21.8089 31.4517 21.732 31.8946C21.662 32.3374 21.3471 32.5835 20.9413 32.6186C20.4516 32.6608 19.9408 32.6538 19.451 32.5835C19.0242 32.5202 18.6114 32.3445 18.1706 32.2039C18.0587 32.6327 17.9607 33.0685 17.8418 33.4903C17.7788 33.7083 17.8208 33.8278 18.0517 33.9121C19.472 34.4183 20.8994 34.5167 22.3057 33.891C23.9429 33.1599 24.2928 30.9104 22.9144 29.7926C22.4456 29.413 21.8439 29.1951 21.2982 28.9139C20.9763 28.7522 20.6405 28.6257 20.3186 28.4499C20.0388 28.2953 19.8708 28.0492 19.8988 27.6977C19.9268 27.3533 20.1437 27.1424 20.4516 27.0439C20.6895 26.9666 20.9553 26.9033 21.2002 26.9315C21.7949 27.0018 22.3827 27.1213 22.9984 27.2267C23.1313 26.7768 23.2713 26.2777 23.4182 25.7223ZM11.5377 25.4622C11.5377 28.3866 11.5377 31.2759 11.5377 34.1652C13.3498 34.1652 15.134 34.1652 16.9252 34.1652C16.9252 33.6169 16.9252 33.0967 16.9252 32.5413C15.7777 32.5413 14.6512 32.5413 13.4828 32.5413C13.4828 30.1582 13.4828 27.8172 13.4828 25.4622C12.8181 25.4622 12.1954 25.4622 11.5377 25.4622ZM15.064 12.0703C13.2239 12.0703 11.4327 12.0703 9.62756 12.0703C9.62756 12.8436 9.62756 13.5817 9.62756 14.3199C11.4537 14.3199 13.2519 14.3199 15.064 14.3199C15.064 13.5606 15.064 12.8295 15.064 12.0703ZM9.23574 12.0633C7.41658 12.0633 5.61841 12.0633 3.80624 12.0633C3.80624 12.8295 3.80624 13.5677 3.80624 14.3128C5.6324 14.3128 7.43057 14.3128 9.23574 14.3128C9.23574 13.5536 9.23574 12.8225 9.23574 12.0633ZM20.8924 12.0633C19.0662 12.0633 17.268 12.0633 15.4629 12.0633C15.4629 12.8295 15.4629 13.5677 15.4629 14.3199C17.282 14.3199 19.0802 14.3199 20.8924 14.3199C20.8924 13.5677 20.8924 12.8295 20.8924 12.0633ZM3.79225 16.9631C5.60441 16.9631 7.40258 16.9631 9.22874 16.9631C9.22874 16.2039 9.22874 15.4657 9.22874 14.7206C7.40958 14.7206 5.61141 14.7206 3.79225 14.7206C3.79225 15.4728 3.79225 16.2039 3.79225 16.9631ZM15.064 17.3849C13.2449 17.3849 11.4397 17.3849 9.63455 17.3849C9.63455 18.1511 9.63455 18.8823 9.63455 19.6134C11.4537 19.6134 13.2519 19.6134 15.064 19.6134C15.064 18.8612 15.064 18.1301 15.064 17.3849ZM3.79225 11.6555C5.6324 11.6555 7.43057 11.6555 9.22174 11.6555C9.22174 10.8963 9.22174 10.1652 9.22174 9.44113C7.39559 9.44113 5.59742 9.44113 3.79225 9.44113C3.79225 10.1933 3.79225 10.9174 3.79225 11.6555ZM20.8854 11.6696C20.8854 10.8963 20.8854 10.1652 20.8854 9.4341C19.0662 9.4341 17.268 9.4341 15.4629 9.4341C15.4629 10.1933 15.4629 10.9244 15.4629 11.6696C17.275 11.6696 19.0662 11.6696 20.8854 11.6696ZM9.22874 19.6134C9.22874 18.8471 9.22874 18.116 9.22874 17.3779C7.40258 17.3779 5.60441 17.3779 3.80624 17.3779C3.80624 18.1371 3.80624 18.8682 3.80624 19.6134C5.61841 19.6134 7.40958 19.6134 9.22874 19.6134ZM20.8924 17.3708C19.0662 17.3708 17.261 17.3708 15.4629 17.3708C15.4629 18.1301 15.4629 18.8612 15.4629 19.5993C17.282 19.5993 19.0802 19.5993 20.8924 19.5993C20.8924 18.8541 20.8924 18.1301 20.8924 17.3708Z" fill="#8C8C8C"/>
</svg>
